<?xml version="1.0" encoding="utf-8"?>
<!-- Generator: Adobe Illustrator 21.0.0, SVG Export Plug-In . SVG Version: 6.00 Build 0)  -->
<svg version="1.1" id="Layer_1" xmlns="http://www.w3.org/2000/svg" xmlns:xlink="http://www.w3.org/1999/xlink" x="0px" y="0px"
	 viewBox="0 0 70.2 26.5" style="enable-background:new 0 0 70.2 26.5;" xml:space="preserve">
<style type="text/css">
	.st0{fill:#FEFDFD;}
	.st1{fill:#BDB4B6;}
	.st2{fill:#F8E9EC;}
</style>
<g id="LBmnOC.tif">
	<g>
		<path class="st0" d="M36.9,0c-1.4,0.7-2.5,1.7-3.2,3.1c-0.5-0.6-0.7-1.3-1.3-1.7c0,0-0.1-0.1-0.1-0.1c-0.2-0.5-0.7-0.9-1.1-0.9
			c-1,0.2-1.8,0.7-2.4,1.4c-0.8,0.9-0.9,2.1-0.5,3.3c-0.1,0.4-0.3,0.3-0.5,0.1c-0.1-0.1-0.2-0.3-0.4-0.1c-0.4,0-0.7,0-0.9-0.5
			c-0.3-0.6-1-0.5-1.5-0.5c-0.4,0-0.6,0.4-0.7,0.7c0,0.5-0.1,1-0.2,1.5c-0.1,0.4,0.3,0.7,0.4,1.1c-0.1,0.1-0.3,0.1-0.4,0
			c-1.1-0.2-2.2-0.1-3.2,0.6c-0.4,0.3-0.6,1-0.4,1.5c0.2,0.4,0.6,0.6,0.8,1c-0.7,0.2-1,0.8-1.4,1.2c-0.6,0.5-0.5,1.5,0.1,1.9
			c0.3,0.2,0.4,0.4,0.1,0.6c-0.1,0.1-0.1,0.2-0.2,0.3c-0.2,0.4-0.4,0.8-0.1,1.2c0.3,0.4,0.6,0.9,1.2,0.8c0.7,0,1.3,0.2,2,0.3
			c-0.7,0.9-1.3,1.7-1.5,2.8c-0.2,0.6,0,1.1,0.4,1.6c0.3,0.4,0.6,0.5,1.1,0.6c0.8,0.1,1.5,0,2.2-0.4c0.1-0.1,0.3-0.1,0.4-0.1
			c0.2,0.1,0.1,0.3,0.1,0.4c-0.2,0.7-0.1,1.3,0.1,1.9c0.1,0.5,0.3,1,0.8,1.1c0.5,0.1,1-0.1,1.4-0.5c0.2-0.2,0.3-0.4,0.6-0.4
			c0.1,0.3,0.1,0.7,0.2,1c0,0.3,0.2,0.7,0.3,1c0.2,0.3,0.4,0.8,0.7,0.7c0.5-0.2,1.2-0.1,1.6-0.6c0.3-0.4,0.6-0.8,0.8-1.2
			c0.1-0.2,0.1-0.4,0.4-0.4c0.1,0.1,0.2,0.2,0.2,0.3c0.1,0.3,0.2,0.6,0.3,0.8c0.3,0.7,0.8,1,1.5,0.9c0,0,0.1,0,0.1,0
			c0,0.2,0.1,0.3,0.3,0.3c0.5,0.1,1,0,1.3-0.5c1-1.5,1.3-3.1,0.7-4.8c0-0.1-0.2-0.2,0-0.4c0.4,0.3,0.9,0.4,1.5,0.4
			c0.6,0,1.3,0.1,1.7-0.5c0,0,0,0,0,0c0,0,0.1-0.1,0.1-0.1l0,0c0.4-0.1,0.3-0.4,0.3-0.7c0.1,0,0.3,0,0.3-0.2
			c0.3-0.5,0.7-0.6,1.2-0.5c0.6,0.1,1.2,0,1.8-0.3c0.5-0.2,1.2-0.5,1.2-1.3c0.1,0,0.1-0.1,0.1-0.2c0.4-0.1,0.3-0.4,0.3-0.7
			c-0.1-0.4-0.3-0.7-0.6-1c-0.2-0.2-0.4-0.4-0.1-0.7c0.4-0.4,0.4-0.9,0.2-1.3c-0.2-0.5-0.1-0.7,0.5-0.7c0.1,0,0.2-0.1,0.3-0.1
			c0.7-0.4,0.8-1.9,0.2-2.6c-0.5-0.6-1.3-0.8-1.9-1.1c0.3-0.4,0.5-0.9,0.8-1.2c0.4-0.4,0.6-0.7,0.3-1.3C44.8,6.2,44.6,6,43.9,6
			c-0.6,0-1.3,0-2,0.1c0.3-0.5,0.4-0.8,0.3-1.4c-0.3-1.5-0.8-1.8-2.3-1.3c-0.3,0.1-0.3,0-0.3-0.2c0-0.5,0-1-0.1-1.5
			c-0.1-1-0.3-1.4-1.4-1.6c-0.1,0-0.2,0-0.3-0.1"/>
		<path class="st1" d="M32.4,1.4c0.6,0.4,0.8,1.1,1.3,1.7c0.8-1.4,1.9-2.4,3.2-3.1c0.3,0,0.6,0,0.9,0c0.1,0.1,0.2,0.1,0.3,0.1
			c1.1,0.2,1.3,0.6,1.4,1.6c0.1,0.5,0.1,1,0.1,1.5c0,0.3,0.1,0.3,0.3,0.2c1.5-0.5,2-0.2,2.3,1.3c0.1,0.5-0.1,0.9-0.3,1.4
			c0.7-0.1,1.3-0.1,2-0.1c0.7,0,0.9,0.2,1.2,0.9c0.3,0.6,0.1,0.9-0.3,1.3c-0.3,0.3-0.5,0.8-0.8,1.2c0.7,0.3,1.4,0.5,1.9,1.1
			c0.6,0.7,0.5,2.2-0.2,2.6c-0.1,0.1-0.2,0.1-0.3,0.1c-0.6-0.1-0.6,0.1-0.5,0.7c0.1,0.4,0.1,0.9-0.2,1.3c-0.3,0.3-0.1,0.5,0.1,0.7
			c0.3,0.3,0.5,0.6,0.6,1c0,0.3,0.1,0.6-0.3,0.7l0,0c0.1-0.3,0.3-0.7,0-0.9c-0.4-0.3-0.5-0.8-0.9-1.2c0,0.2,0,0.4,0.1,0.5
			c0.3,0.5,0.4,1,0,1.5c-0.1,0.1-0.1,0.2,0,0.3c0.3,0.6,0.5,0,0.7,0l0,0c-0.1,0.8-0.7,1.1-1.2,1.3c-0.5,0.2-1.2,0.3-1.8,0.3
			c-0.5-0.1-0.9,0-1.2,0.5c-0.3-0.2-0.3-0.2-0.2-0.3c0.4-0.1,0.3-0.3,0.2-0.6c-0.1-0.4-0.3-0.7-0.3-1.1c0.3,0.2,0.3,0.6,0.4,0.8
			c0.1,0.2,0.3,0.4,0.5,0.3c0.8-0.1,1.5,0,2.3-0.3c0.4-0.1,0.6-0.4,0.4-0.9c-0.1-0.2-0.2-0.4,0-0.6c0.4-0.4,0.3-0.9,0-1.3
			c-0.3-0.4-0.9-0.4-1.1,0c-0.4,0.9-1.2,1.3-2.1,1.6c-0.5,0.2-0.7,0.1-0.7-0.6c0.3,0.3,0.6,0.3,0.9,0c0.2-0.2,0.4-0.3,0.7-0.4
			c0.9-0.4,1.2-1.2,0.9-2.1c-0.1-0.4-0.3-0.8-0.6-1.1c0.2,0,0.3,0.1,0.4,0.3c0.3,0.5,0.5,1,0.5,1.6c0,0.1-0.1,0.4,0.2,0.3
			c0.6-0.2,1-0.6,1.4-1c0.1-0.1,0.1-0.3,0.1-0.4c0-0.8-0.7-1.1-1.1-1.6c-0.4-0.5-1-0.8-1.7-0.7c-0.8,0-1.6,0-2.4,0
			c-0.6,0-1,0.3-1.4,0.7c0.5-0.1,1,0.1,1.4,0c0.7-0.2,1.2,0.1,1.8,0.3c-0.3,0.1-0.6-0.1-0.9-0.2c-1.2-0.2-2.3-0.1-3.3,0.8
			c0.3,0,0.4,0,0.5,0c0.8-0.2,1.7,0.1,2.6-0.1c0.2,0,0.4-0.1,0.5,0.1l0,0c-0.3-0.1-0.6,0.1-0.9,0.1c-1.2,0.2-2.4,0.1-3.6,0.4
			c-0.2,0.1-0.5,0-0.4,0.4c0.1,0.4,0.3,0.1,0.5,0.1c1.1-0.1,2.2-0.4,3.4,0c0.8,0.3,1.7,0.5,2.3,1.2c-0.2,0.2-0.3,0-0.4-0.1
			c-0.3-0.2-0.6-0.4-1-0.5c-1.2-0.4-2.4-0.6-3.7-0.4c-0.9,0.1-1.5,0.4-2,1.1c-0.1,0.1-0.3,0.3-0.6,0.3c0.2-0.3,0.2-0.5,0.5-0.7
			c0.2-0.1,0.5-0.3,0.5-0.6c0.2,0,0.4,0,0.3-0.3c0-0.2,0-0.3,0-0.5c0-0.2,0.2-0.4,0.3-0.3c0.2,0.1-0.1,0.1-0.1,0.2
			C36,14,36,14,36.1,14c0.2-0.1,0.4-0.1,0.5-0.3c0.2-0.3,0.3-0.6,0.7-0.6c0,0,0.1-0.1,0.1-0.2c0-0.1-0.1-0.1-0.2-0.1
			C36.8,12.7,36.4,13,36,13c0.3-0.5,0.9-0.3,1.4-0.6c-0.4-0.2-0.8-0.4-1.2-0.2c-0.6,0.3-0.5-0.1-0.5-0.5c0.1,0.2,0.3,0.4,0.4,0.2
			c0.4-0.7,1.4-1,1.4-2c0-0.3,0.2-0.6,0.3-1.1c0,0.3,0,0.5,0.1,0.8c0.4-0.6,0.1-1.1-0.3-1.5c-0.1-0.1-0.2-0.4-0.5-0.2
			c-0.2,0.2-0.4,0.3-0.2,0.7c0.3,0.5,0.1,0.8-0.4,0.9c-0.6,0.1-0.8,0.5-1,1c-0.1,0.2-0.1,0.4-0.3,0.4c0-0.8,0.6-1.5,1.3-1.7
			c0.3-0.1,0.3-0.3,0.1-0.4c-0.4-0.2-0.2-0.4,0-0.6c0.1-0.1,0.3-0.3,0.4-0.5c0.3-0.3,0.6-0.6,0.8,0.1c0.1,0.3,0.3,0.5,0.5,0.7
			c0.5-1,0.5-1.8-0.1-2.1c0.7,0,0.6-0.8,1.2-0.9c0.1,0.2-0.1,0.3-0.2,0.5c-0.3,0.3-0.4,0.6-0.2,1.1c0.2,0.4,0.2,0.9-0.1,1.3
			c0-0.3,0-0.6,0-0.9c-0.1,0.3-0.2,0.7-0.3,1c-0.1,0.2,0.1,0.2,0.2,0.1c-0.2,0.4-0.4,0.8-0.7,1.3C38,9.8,37.9,9.9,38,10.1
			c0.1,0.1,0.2,0,0.3-0.1c0.2-0.1,0.3-0.2,0.5,0c-0.3,0.3-0.7,0.4-1,0.7c-0.3,0.3-0.6,0.6-0.9,0.9c-0.1,0.1-0.4,0.2-0.1,0.4
			c0.6,0.2,1.1,0.5,1.8-0.1c0.6-0.5,1-1.3,0.7-2c-0.2-0.4,0-0.5,0.1-0.7c0.6-1.1,1.5-1.9,2.2-2.9c0.5-0.7,0.5-1.3,0.3-2
			c-0.2-0.8-0.8-1-1.6-0.7c-0.4,0.2-0.9,0.4-1.2,0.7l0,0c0.4-1.5,0.3-2.9-0.2-3.3c-0.4,0.7,0,1.5,0.1,2.2c-0.2,0-0.4-0.5-0.5-0.1
			c-0.3,0.8-1,1.4-0.8,2.3c-0.3-0.2-0.5-0.6-0.9-0.2c-0.8,0.6-1.4,1.4-1.7,2.4c-0.1,0.4-0.4,0.9,0.1,1.3c0.1,0.1,0,0.1,0,0.2
			c-0.3,0.4-0.5,0.8-0.5,1.3c0,0.2-0.3,0.2-0.4,0.1c-0.1,0-0.2-0.2-0.1-0.2c0.6-0.3,0.1-0.7,0.1-1c0.3,0,0.3-0.2,0.4-0.4
			c0-0.7,0.3-1.3,0.4-1.9C35.4,6,35.3,5,34.9,4.2c-0.4-0.8-0.5-0.8,0.1-1.5c0.1-0.1,0.1-0.2,0.2-0.3c0.3-0.8,1-1.3,1.6-1.8
			c0.1-0.1,0.2-0.2,0.4,0c-0.2,0.2-0.5,0.3-0.7,0.6c-0.7,0.7-1.7,1.4-1.2,2.7c0,0.1,0,0.1,0,0.2c0,0.7,0.3,1.3,0.2,2
			c0.6-0.6,1-1.4,1.9-1.5c0,0,0.1,0,0.1-0.1c0.2-0.8,0.8-1.5,1-2.4c0.1-0.4-0.1-0.8,0.1-1.2c0.1-0.3,0-0.5-0.3-0.6
			c-0.5-0.2-1.1-0.4-1.6,0c-1.2,0.8-2.5,1.6-2.8,3.2c0,0.2,0,0.5-0.1,0.6c-0.5,0.5-0.1,0.9,0.1,1.4C34,6,34.2,6.4,34.2,6.9
			c0.1,0.8,0.1,1.5,0.1,2.2c-0.4,0-0.9,0.1-1.1,0.5c-0.1,0.3,0.3,0.6,0.6,0.9c0.1,0.1,0.3,0.1,0.4,0.1c0.2,0,0.3,0.1,0.3,0.3
			c0,0.2-0.1,0.3-0.3,0.3c0-0.1,0.2-0.4,0-0.4c-0.5,0.1-0.8-0.3-1.2-0.2c0.3-0.4,0.3-0.4-0.3-0.5c0.2,0.2,0.1,0.5,0.3,0.5
			c0,0.2,0,0.4,0.2,0.5c0.3,0.4-0.3,0.3-0.3,0.5c0,0.2-0.2,0.2-0.3,0.1c-0.1-0.1-0.3-0.2-0.4-0.1c-0.1,0.1,0,0.3,0.1,0.4
			c0,0.1,0.1,0.2,0.2,0.3c-0.5,0.1-0.4,0.4-0.2,0.7c0,0.1,0.1,0.2,0,0.3c-0.1,0.1-0.1,0.1-0.2,0c-0.1-0.1-0.3-0.3-0.4,0.1
			c0,0.3,0.2,0.4,0.4,0.6c0.2,0.1,0.3,0,0.3-0.1c0-0.4,0.5-0.8,0.1-1.2c-0.1-0.1,0-0.2,0-0.4c0,0,0.1,0,0.1,0c0.4-0.4,0.8-0.3,1.2,0
			c-0.3,0.3-0.3,0.9,0.1,1.2c0.1-0.2-0.2-0.5,0.1-0.6c0.4-0.1,0.3-0.3,0.3-0.5c0.2-0.1,0.3,0.2,0.5,0.2c0.1-0.1-0.1-0.3,0.1-0.5
			c0.4,0.3,0.4,1.2,1.2,0.8c-0.2,0.4-0.7,0.6-1,0.6c-0.4,0.1-0.6,0.3-0.9,0.5c-0.2,0.2-0.4,0.5-0.7,0.9c0-0.4,0-0.6-0.1-0.8
			c0-0.1,0-0.4-0.3-0.3c-0.3,0.1-0.1,0.3,0,0.4l0,0c-0.3,0-0.6,0-0.7,0.4c0,0.3-0.1,0.7,0.3,0.8c0.3,0.1,0.8,0.2,1-0.1
			c0.2-0.3,0.4-0.3,0.6-0.3c-0.1,0.3-0.5,0.4-0.7,0.7c0,0.2,0.3,0,0.4,0.3c-0.5,0.1-1.1,0.2-1.4,0.8c0,0,0,0,0,0
			c0-0.2,0.1-0.5-0.3-0.5c-0.1,0-0.2-0.1-0.2-0.3c0.4,0.2,0.7,0.1,1.1-0.2c-0.3-0.1-0.5-0.1-0.8-0.2c-0.3-0.1-0.4,0.1-0.4,0.3
			c-0.3-0.2-0.3-0.4-0.1-0.6c0.2-0.3,0.1-0.7-0.1-0.9c-0.3-0.4-0.9-0.2-1.2-0.8c-0.3-0.5,0-0.9,0.2-1.3c0.3-0.5,0.6-0.1,0.8,0.1
			c0.1-0.6,0-0.7-0.5-1c-0.4-0.2-0.8-0.4-0.7-0.9c0.1-0.3-0.2-0.4-0.4-0.5c0-0.2,0.4-0.1,0.3-0.4c0-0.1-0.1-0.2-0.2-0.2
			c-0.1,0-0.3,0-0.3,0.1c0,0.5-0.5,0.4-0.9,0.5c0.5,0.8,0.5,1.7,1.5,2.2c-0.4,0.1-0.6,0.1-0.7,0.4c-0.1,0.2-0.3,0.1-0.5,0.1l0,0
			c0-0.3-0.2-0.2-0.4-0.2c-0.1,0-0.2,0.1-0.2,0.2c0.2,0.5-0.2,1.3,0.6,1.5c0-0.2,0-0.7,0.5-0.4c0.3,0.2,0.5,0.6,0.9,0.9
			c-0.4,0-0.5-0.2-0.6-0.3c-0.1-0.1-0.2-0.2-0.3-0.1c-0.1,0.1-0.1,0.2-0.1,0.3c0,0.1,0,0.3,0.2,0.4c0.2,0,0.3,0.1,0.5,0.1
			c0.2,0.1,0.4-0.3,0.6,0c-0.1,0.2-0.3,0-0.4,0.1c0,0.1,0.2,0,0.2,0.2c-0.8,0-1.1-0.1-1.8-0.6c-0.3-0.2-0.5-0.5-0.9-0.2
			c0,0.2,0.3,0.3,0.1,0.5c-0.2-0.2-0.5-0.5-0.5-0.6c0-0.3,0.3-0.2,0.4-0.3c0.2-0.1,0.4-0.7,0.2-0.7c-0.6-0.1-1.2-0.5-1.8-0.1
			c-0.2,0.1-0.4,0.2-0.6,0.3c-0.1,0.1-0.4,0-0.3,0.2c0,0.2,0.2,0.1,0.4,0.2c0.2,0.1,0.6,0.1,0.8,0.3c-0.4,0-0.7-0.2-1-0.1
			c-0.2,0-0.4,0-0.5-0.2c0-0.2,0-0.5,0.3-0.6c0.1,0,0.2,0,0.3-0.1c0.2-0.2,0.6-0.3,0.7-0.6c0.1-0.2-0.3-0.1-0.4-0.3
			c0.7-0.1,1.3-0.1,1.8,0.4c0.1,0.1,0.4,0.1,0.3-0.1c-0.1-0.3,0-0.4,0.2-0.6c0.1-0.1,0.3-0.2,0.2-0.3c-0.2-0.4,0-0.5,0.3-0.7
			c-0.1-0.4-1.1,0-0.5-0.8c0,0,0-0.1-0.1-0.1c-0.2-0.1-0.5-0.1-0.7,0.1c-0.2,0.2-0.1,0.3,0.1,0.5c0.1,0.1,0.4,0.2,0.2,0.4
			c-0.2,0.3-0.1,0.5,0.1,0.7c0.1,0.1,0.2,0.2,0,0.3c-0.1,0.1-0.2,0-0.3-0.1c-0.1-0.1,0-0.3-0.1-0.4c0-0.6-0.5-1.2-1.2-1.1
			c-0.4,0-0.7,0.1-1.1,0.1c-0.4,0.1-0.9,0.2-1,0.7c-0.1,0.5,0.2,0.8,0.7,1c0,0,0,0.1,0,0.1c-0.4,0.2-0.5-0.1-0.7-0.3
			c-0.3-0.4-0.6-0.4-0.9-0.1c-0.2,0.2-0.3,0.4-0.4,0.6c0,0.1,0,0.2-0.2,0.2c-0.6,0-1.2,0.2-1.7,0.5c-0.7,0.3-1.2,0.8-1.5,1.6
			c-0.1,0.4-0.1,0.8,0.3,1c0.3,0.2,0.6,0.2,1-0.1c0.2-0.2,0.5-0.1,0.8-0.1c0.5,0.1,1,0.1,1.5,0c0.6-0.1,1.3-0.1,1.9,0
			c0.2,0,0.4,0,0.5,0c0.4-0.2,0.7-0.2,1.2-0.1c-0.4,0.2-0.7,0.4-1,0.6c-0.2,0.1-0.3,0.3-0.3,0.5c0,0.3,0.3,0.2,0.4,0.2
			c0.6,0.1,1.2,0.2,1.8,0c0.2,0,0.4,0,0.5,0.2c0.1,0.2-0.1,0.3-0.3,0.4c-0.4,0.3-0.8,0.4-1.2,0.8c-0.4,0.4-0.4,1-0.8,1.4
			c-0.6,0.8-0.7,1.7-0.6,2.7c0,0.4,0.3,0.8,0.8,0.9c-0.1-0.2-0.1-0.3-0.2-0.4c0,0,0,0,0,0c0.1,0,0.2,0.1,0.3,0.2
			c0.3,0.5,0.7,0.4,1.1,0.1c0.8-0.4,1.3-1.1,1.9-1.8c0.9-1.1,1.5-2.3,1.6-3.7c-0.6,0-1.3,0.1-1.9-0.1l0,0c-0.2-0.1,0.1-0.6-0.4-0.5
			c-0.1,0-0.2,0.2-0.3,0c-0.1-0.1,0-0.3,0.1-0.3c0.4-0.2,0.7-0.5,1.2-0.5l0,0c-0.1,0.1-0.2,0.2-0.3,0.3c-0.1,0.2-0.4,0.2-0.3,0.5
			c0.1,0.3,0.3,0.4,0.7,0.4c0.5,0,1-0.4,1.5-0.2l0,0c-0.1,0.3-0.2,0.6-0.1,0.9c0.1,0.7,0,1.4-0.1,2c-0.1,0.5,0.1,0.8,0.5,0.9
			c0.3,0.1,0.5-0.2,0.6-0.5c0.8-1,0.9-2.2,0.8-3.3c0-0.5,0.2-0.7,0.6-1c0,0.2,0,0.4,0.2,0.7c-0.6-0.1-0.7,0.2-0.6,0.6
			c0.1,0.8,0.1,1.6-0.1,2.4c-0.1-0.1,0-0.3-0.2-0.3c-0.2,0.5-0.6,0.9-0.8,1.4c0.3,0.1,0.4-0.3,0.7-0.2c-0.3,0.4-0.6,0.4-1,0.5
			c0.2,0.3,0.5,0.6,0.7,0.9c0.3,0.6,0.8,0.6,1.4,0.5c-0.6-0.9-0.8-1.4-0.6-2c0,0.6,0.1,1,0.4,1.4c0.3,0.4,0.5,0.5,0.7,0
			c0.3-0.7,0.7-1.4,0.6-2.2c0-0.1-0.1-0.3,0.2-0.4c0.2,0.5,0,0.9,0.1,1.4c0.6-0.9,0.2-1.9,0.4-2.8c0.1,0.5,0.2,1,0.2,1.5
			c0,0.3,0.1,0.4,0.3,0.5c1.1,0.6,2.2,0.8,3.4,0.3c-0.4,0.7-1.1,0.5-1.7,0.5c-0.5,0-1-0.1-1.5-0.4c-0.2,0.2-0.1,0.3,0,0.4
			c0.7,1.7,0.4,3.3-0.7,4.8c-0.3,0.4-0.8,0.5-1.3,0.5c-0.2,0-0.3-0.1-0.3-0.3c0.8,0.2,1.3,0.1,1.7-0.8c0.8-1.6,0.9-3.1,0-4.7
			c-0.1,0.4-0.3,0.8-0.4,1.2c-0.4,1-1.1,1.6-2.1,1.8c-0.3,0-0.3,0.1-0.3,0.4c0.1,0.8,0.7,1.4,1,2.1c-0.7,0.1-1.2-0.2-1.5-0.9
			c-0.1-0.3-0.2-0.6-0.3-0.8c0.3,0,0.3,0.2,0.4,0.4c0.2,0.4,0.3,0.8,0.8,0.9c0.1-0.1,0-0.3,0-0.3c-0.4-0.5-0.4-1.1-0.7-1.7
			c-0.1-0.2,0-0.5-0.3-0.5c-0.3,0-0.3,0.4-0.4,0.6c0,0.1,0,0.2,0,0.3c-0.3,0-0.3,0.3-0.4,0.4c-0.2,0.4-0.5,0.8-0.8,1.2
			c-0.4,0.6-1.1,0.5-1.6,0.6c-0.3,0.1-0.6-0.4-0.7-0.7c-0.2-0.3-0.3-0.6-0.3-1c0-0.3-0.1-0.6-0.2-1c-0.3,0.1-0.4,0.3-0.6,0.4
			c-0.4,0.4-0.9,0.6-1.4,0.5c-0.5-0.1-0.7-0.7-0.8-1.1c-0.2-0.6-0.2-1.3-0.1-1.9c0-0.1,0.1-0.3-0.1-0.4c-0.1,0-0.2,0-0.4,0.1
			c-0.7,0.4-1.5,0.5-2.2,0.4c-0.4,0-0.8-0.2-1.1-0.6c0.1,0,0.3,0,0.4,0.1c1.1,0.5,2.1,0.2,3-0.3c0.3-0.1,0.4-0.3,0.5-0.7
			c-0.4,0.2-0.8,0.3-1.2,0.5c-0.6,0.2-0.6,0.2-1.2,0.1c0.7-0.2,1.8-0.9,2.1-1.3c-1.4,0.2-2.3,0.2-3-0.8c2,0.7,3.5-0.2,5.1-0.9
			c-0.4-0.1-0.8,0-1.2-0.1c-0.4-0.1-0.9,0-1.1-0.5c-0.1-0.4,0.2-0.7,0.5-0.9c-1.5-0.5-3.1,0.1-4.6-0.1c0.3,0.2,0.6,0.3,0.9,0.3
			c0.7,0,1.4,0,2,0c0.1,0,0.3,0,0.3,0.1c0,0.1,0,0.1-0.1,0.2c-0.8,0.5-1.5,1-2.1,1.8c-0.6,0.7-0.6,1.4,0.1,1.9
			c0.1,0.1,0.3,0.1,0.3,0.3c-0.3,0-0.5-0.2-0.7-0.3c-0.3-0.2-0.3-0.6-0.6-0.9c0.2-1.1,0.8-1.9,1.5-2.8c-0.7-0.1-1.4-0.3-2-0.3
			c-0.6,0-0.9-0.4-1.2-0.8c-0.3-0.4-0.1-0.8,0.1-1.2c0.1-0.1,0.1-0.2,0.2-0.3c0.3-0.3,0.2-0.4-0.1-0.6c-0.6-0.4-0.6-1.5-0.1-1.9
			c0.5-0.4,0.7-1,1.4-1.2c-0.2-0.4-0.6-0.6-0.8-1c-0.2-0.5,0-1.2,0.4-1.5c1-0.6,2.1-0.7,3.2-0.6c0.1,0,0.3,0.1,0.4,0
			C24.4,7,23.9,6.7,24,6.3c0.1-0.5,0.2-1,0.2-1.5c0-0.4,0.2-0.7,0.7-0.7c0.6,0,1.3-0.1,1.5,0.5c0.2,0.5,0.5,0.5,0.9,0.5
			c-0.1,0.3-0.4,0.1-0.5,0.3c0,0-0.1,0.1-0.1,0.1c0,0-0.1,0.1-0.1,0.1c-0.1,0-0.2,0.1-0.3,0.1c0-0.3-0.2-0.4-0.2-0.7
			c0-0.5-0.2-0.7-1-0.7c-0.5,0-0.7,0.2-0.6,0.7c0.1,0.4,0,0.7-0.1,1C24.1,6.9,25,8,25.8,8c0.4,0,0.7,0.2,0.9,0.3
			c0.1,0.1,0.3,0.1,0.2,0.3c-0.1,0.2-0.2,0.2-0.4,0.1c-0.2-0.2-0.5-0.3-0.7-0.5c-0.2-0.1-0.5-0.1-0.7,0C24.9,8.4,25,8.6,25,8.8
			c0,0.1,0.1,0.2-0.1,0.3c-0.2-0.1-0.2-0.3-0.5-0.3c-0.4,0.1-0.8,0.2-1.2,0.3c-0.2,0-0.2,0.2-0.1,0.3c0.2,0.7,0.7,1.1,1.2,1.6
			c0.1,0.1,0.2,0,0.3,0c0.4-0.4,0.9-0.5,1.4-0.6c0.2,0,0.3,0,0.3-0.2c0,0,0,0,0,0c0.5,0,1,0.6,1.5,0c0,0,0,0,0.1,0
			c0.7,0.1,0.5-0.3,0.4-0.6c0-0.2-0.1-0.3-0.2-0.5c0,0,0,0,0.1-0.1c0.3,0,0.4-0.6,0.8-0.5c0,0,0.1-0.2,0-0.2
			c-0.3-0.4-0.4-0.8-0.3-1.3c0-0.2-0.1-0.4-0.3-0.5c-0.1-0.1-0.3-0.2-0.3-0.4c0.1,0,0.3,0.1,0.3,0.2c0.3,0.7,0.9,0.6,1.5,0.6
			c0.1,0,0.3,0,0.4,0c0,0,0,0,0,0c0,0,0,0,0,0c-0.3-0.4,0.1-0.9,0-1.3c-0.3-1.2,0.1-2.5,0-3.7c0.2,0,0.2,0.1,0.2,0.3
			c0,0.5,0,0.9,0,1.4c-0.1,1.2-0.2,2.4,0.6,3.4c0.2,0.2,0.2,0.6,0.1,0.8c-0.5,0.7-0.2,1.4-0.1,2.2c-0.6-0.2-0.7,0.1-0.5,0.6
			c0.1,0.4,0.1,0.8,0.7,0.8c0.1,0,0.1,0.3,0.3,0.2c0-0.3,0.3-0.5,0-0.8c0.3-0.2-0.4-0.4,0-0.6c0.2-0.2,0.5-0.4,0.8-0.2
			c0.1,0,0.2,0,0.3,0c0.1,0,0.2-0.1,0.2-0.1c-0.3-0.6,0.1-0.7,0.6-0.7c0.1,0,0.2-0.1,0.2-0.1c0.1,0,0.2,0,0.1-0.2
			c0-0.1-0.1-0.1-0.2-0.1c-0.2,0-0.5,0.1-0.7-0.1c0.1-0.2,0.3,0,0.3-0.3c-0.1-0.9,0-1.8-0.1-2.7c0-0.3,0-0.7-0.3-1
			c0,0.8,0,1.6,0,2.4c-0.1-0.2-0.1-0.4-0.1-0.7c-0.2-0.9,0.1-1.9-0.4-2.8c-0.3-0.5,0-1.1-0.3-1.6C31.9,1.5,32.1,1.4,32.4,1.4z
			 M22.8,17.6c0.3,0,0.5-0.2,0.7-0.4c0.1,0,0.2,0,0.2-0.2c0,0,0,0,0,0c-0.1,0-0.1,0.1-0.2,0.2C23.2,17.2,22.9,17.2,22.8,17.6
			C22.8,17.6,22.8,17.6,22.8,17.6C22.8,17.6,22.8,17.6,22.8,17.6z M26.1,19c-0.9,0.2-1.9,0.2-2.9,0c0.8,0.6,1.5,0.4,2.2,0.3
			c0.5-0.1,0.7,0,0.6,0.5C26.7,19.5,26,19.2,26.1,19c0,0,0.2,0,0.1-0.1C26.2,18.9,26.1,18.9,26.1,19z M33.5,5.6
			C33.5,5.6,33.5,5.6,33.5,5.6C33.5,5.6,33.5,5.6,33.5,5.6c-0.1,0.9,0.2,1.7,0.1,2.6c0,0.1,0,0.2,0.2,0.2c0.1,0,0.2-0.1,0.2-0.2
			C34.1,7.3,34.1,6.4,33.5,5.6z M21.2,11.3c0-0.1,0.1-0.2,0.1-0.2c0.2,0,0.5,0.2,0.5-0.2c0-0.3-0.4-0.1-0.6-0.1
			c-0.2,0-0.3,0.1-0.4,0.2c-0.3,0.3-0.6,0.6-0.9,0.9c-0.1,0.1-0.2,0.2-0.1,0.4c0.4-0.3,0.8-0.8,1.3-1c-0.1,0.5-0.6,0.5-0.8,0.9
			c-0.2,0.3-0.3,0.6-0.1,0.9c0.1,0.2,0.2,0.5,0.6,0.4c0.6-0.2,1.1-0.5,1.8-0.8c-0.8-0.4-0.8-0.4-1.1-1.3
			C21.4,11.3,21.3,11.3,21.2,11.3z M22.6,10.9c-0.4,0-0.6,0.2-0.7,0.6l0,0c-0.4,0.1-0.2,0.3,0,0.5c0.2,0.3,0.5,0.3,0.8,0.4
			c0.3,0.2,0.6,0.4,0.8-0.2c0-0.1,0.2-0.2,0.3-0.3c0.4-0.3,0.4-0.4,0.1-0.8c-0.3-0.5-0.7-0.9-1.3-0.8c-0.3,0-0.6-0.2-0.8-0.4
			c-0.2-0.5-0.7-0.9-0.6-1.5c-0.4,0.4-0.6,0.7-0.4,0.9c0.5,0.6,0.9,1.3,1.7,1.3C22.8,10.6,22.7,10.8,22.6,10.9L22.6,10.9z M21.6,8.1
			c-0.4,0.2-0.3,0.5-0.1,0.8c0.1,0.2,0.3,0.3,0.3,0.5c0.2,0.6,0.7,0.6,1.2,0.7c-0.1-0.3-0.2-0.4-0.2-0.6c-0.1-0.7,0-0.9,0.8-1
			c0.3,0,0.5,0,0.8,0c0.4,0,0.5-0.3,0.5-0.5c0.1-0.3-0.3-0.3-0.4-0.3c-0.6-0.1-1.1-0.1-1.7-0.1C22.3,7.6,21.9,7.9,21.6,8.1L21.6,8.1
			z M40.5,8.8C40.5,8.8,40.5,8.8,40.5,8.8c-0.6,0.7-1.2,1.3-1,2.4c0,0.2,0,0.4,0.3,0.3c0.5-0.3,1-0.4,1.5-0.6c0.8-0.4,1.4-1,2.1-1.5
			c0.1,0.6-0.6,0.6-0.8,1.1c0.8-0.1,1.6-0.3,2.3,0.3c-0.7-0.2-1.5-0.4-2.2-0.1c-0.7,0.3-1.5,0.3-2,0.9c0.2,0.1,0.4,0.1,0.6,0.1
			c0.9-0.3,1.7,0.1,2.4,0.7c0.3,0.2,0.5,0.6,0.8,0.7c0.4,0.1,0.6-0.3,0.9-0.5c0.1-0.1,0.3-0.1,0.4-0.1c0.1-0.1,0.4-0.2,0.1-0.5
			c-0.2-0.1-0.2-0.5-0.1-0.7c0.4-0.6-0.1-0.8-0.4-1.1c-0.4-0.3-0.9-0.5-1.3-0.6c-0.1,0-0.4-0.1-0.2-0.3c0.4-0.5,0.5-1.1,1-1.5
			c0.5-0.4,0.2-0.7,0.1-1c-0.1-0.3-0.4-0.5-0.7-0.5c-0.6,0-1.2,0.1-1.9,0.1c-0.5,0-0.7,0.2-0.9,0.6c-0.1,0.4-0.4,0.6-0.7,0.9
			C40,8.2,39.8,9,39.3,9.6c0.4,0,0.5-0.2,0.6-0.4C40.1,9,40.2,8.8,40.5,8.8z M31.1,20.1c-0.5,1.1-1.1,2-1.8,2.7
			c-0.8,0.7-0.7,1.4-0.4,2.2c0.1,0.2,0.1,0.3,0.2,0.5c0.1,0.3,0.2,0.7,0.5,0.7c0.4-0.1,1,0,1.3-0.4c0.5-0.7,1-1.4,1.4-2.2
			c0.1-0.2,0.2-0.5,0.1-0.8c-0.2-0.4-0.3-0.8-0.7-1.1c-0.3-0.1-0.4-0.5-0.4-0.8C31.3,20.6,31.3,20.4,31.1,20.1z M30.9,8
			c0.2-0.6-0.7-0.5-0.6-1c0,0-0.1-0.1-0.2-0.1c-0.3,0-0.5,0.1-0.7,0.2c-0.5,0.4-0.1,0.7,0,1.1c0.2,0.7,0.8,0.4,1.3,0.4
			C31.1,8.7,30.7,8.2,30.9,8z M32.4,1.8c0,0.5,0.1,1,0.1,1.5c0,0.2,0.1,0.5,0.3,0.7c0.2,0.1,0.3,0.4,0.5,0.3
			c0.2-0.1,0.2-0.4,0.2-0.6C33.4,2.9,32.8,2.4,32.4,1.8z M28.8,10.3c0.1-0.2-0.1-0.6,0.4-0.6c0.2,0,0.3,0.2,0.4,0
			c0.1-0.2,0-0.5-0.1-0.7c0-0.1-0.2-0.2-0.3-0.1C28.7,9.2,28.6,9.7,28.8,10.3z M27.6,24c-0.6,0.4-1.1,0.1-1.7-0.2
			C26.4,24.7,27,24.7,27.6,24z M31.7,13c-0.1-0.2-0.2-0.4-0.4-0.4c-0.3-0.1-0.3,0.2-0.3,0.3c-0.1,0.2,0,0.4,0.2,0.4
			C31.4,13.3,31.5,13.1,31.7,13z M29.3,12.2c0.1-0.2,0.3-0.4,0.2-0.6c-0.1-0.1-0.3-0.1-0.4,0C28.9,11.9,29.3,12,29.3,12.2z
			 M33.3,13.2c0-0.3-0.1-0.4-0.3-0.4c-0.2,0-0.2,0.1-0.2,0.3c0,0.1,0,0.3,0.2,0.3C33.2,13.3,33.3,13.2,33.3,13.2z M34.1,13.1
			c-0.1,0-0.2,0.1-0.1,0.3c0,0.1,0.1,0.2,0.2,0.2c0.2,0,0.1-0.2,0.1-0.3C34.4,13.1,34.3,13.1,34.1,13.1z M25.7,16.9
			C25.7,16.9,25.6,17,25.7,16.9c0,0.2-0.1,0.3,0,0.2C25.8,17.1,25.7,17,25.7,16.9z M26.8,23.9C26.8,23.9,26.8,23.8,26.8,23.9
			C26.8,23.8,26.7,23.8,26.8,23.9C26.7,23.9,26.7,23.9,26.8,23.9C26.8,23.9,26.8,23.9,26.8,23.9z"/>
		<path class="st2" d="M42.1,13.3c0.2,0.4,0.5,0.7,0.6,1.1c0.3,0.9-0.1,1.7-0.9,2.1c-0.3,0.1-0.5,0.2-0.7,0.4
			c-0.3,0.3-0.6,0.3-0.9,0c0,0.6,0.1,0.8,0.7,0.6c0.9-0.3,1.7-0.6,2.1-1.6c0.2-0.4,0.8-0.4,1.1,0c0.3,0.4,0.4,0.9,0,1.3
			c-0.2,0.2-0.1,0.4,0,0.6c0.2,0.5,0,0.8-0.4,0.9C42.9,19,42.2,19,41.4,19c-0.2,0-0.4-0.1-0.5-0.3c-0.1-0.3-0.1-0.6-0.4-0.8
			c-0.1,0.4,0.2,0.7,0.3,1.1c0,0.2,0.2,0.5-0.2,0.6c-0.1,0-0.1,0.1,0.2,0.3c0,0.2-0.2,0.2-0.3,0.2c-0.3,0.1-0.3,0.4-0.3,0.7
			c0,0,0,0,0,0c0,0-0.1,0.1-0.1,0.1c0,0,0,0,0,0c-1.2,0.5-2.3,0.3-3.4-0.3c-0.2-0.1-0.3-0.3-0.3-0.5c0-0.5-0.1-1-0.2-1.5
			c-0.1,1,0.2,1.9-0.4,2.8c-0.1-0.5,0.1-0.9-0.1-1.4c-0.3,0.1-0.2,0.3-0.2,0.4c0.1,0.8-0.3,1.5-0.6,2.2c-0.2,0.5-0.4,0.5-0.7,0
			c-0.3-0.4-0.4-0.8-0.4-1.4c-0.2,0.6-0.1,1.1,0.6,2c-0.6,0.2-1.1,0.1-1.4-0.5c-0.2-0.3-0.4-0.6-0.7-0.9c0.3-0.1,0.7-0.2,1-0.5
			c-0.3-0.1-0.4,0.3-0.7,0.2c0.2-0.5,0.6-0.9,0.8-1.4c0.2,0,0.1,0.2,0.2,0.3c0.2-0.8,0.2-1.6,0.1-2.4c-0.1-0.5,0-0.7,0.6-0.6
			c-0.2-0.2-0.2-0.4-0.2-0.7c-0.4,0.2-0.6,0.4-0.6,1c0.1,1.2,0,2.4-0.8,3.3c-0.2,0.2-0.4,0.6-0.6,0.5c-0.3-0.1-0.5-0.4-0.5-0.9
			c0.1-0.7,0.2-1.3,0.1-2c0-0.3,0-0.6,0.1-0.9c0,0,0,0,0,0c0,0,0,0,0,0c0,0,0,0,0,0c-0.5-0.1-1,0.3-1.5,0.2c-0.3,0-0.6-0.2-0.7-0.4
			c-0.1-0.3,0.2-0.4,0.3-0.5c0.1-0.1,0.2-0.2,0.3-0.3c0,0,0,0,0,0c0,0,0,0,0,0c0,0,0,0,0,0c-0.5,0-0.8,0.3-1.2,0.5
			c-0.1,0.1-0.2,0.2-0.1,0.3c0.1,0.2,0.2,0,0.3,0c0.5-0.1,0.2,0.4,0.4,0.5c-0.3,0-0.3,0.2-0.1,0.3c0.2,0.2,0.4,0.3,0.7,0.3
			c0.5-0.1,0.6,0,0.5,0.6c0,0.1-0.1,0.3-0.2,0.4c-0.3,0.8-0.9,1.2-1.4,1.8c-0.5,0.6-1.1,1.2-1.4,2c0.2,0,0.2,0,0.3-0.1
			c0.6-1,1.4-1.8,2.2-2.6c0.4-0.4,0.6-0.9,0.8-1.4c0.2-0.7,0.1-0.9-0.7-0.9c-0.3,0-0.6,0.1-0.6-0.3c0.6,0.2,1.2,0.1,1.9,0.1
			c-0.2,1.4-0.7,2.6-1.6,3.7c-0.6,0.7-1.1,1.4-1.9,1.8c-0.4,0.2-0.8,0.3-1.1-0.1c-0.1-0.1-0.2-0.2-0.3-0.2c0,0-0.1-0.1-0.1-0.1
			c0,0-0.1-0.1-0.1-0.1c0-0.1-0.1-0.1-0.1-0.2c0,0,0,0-0.1,0.1c0,0.1,0.1,0.1,0.1,0.2c0,0,0.1,0.1,0.1,0.1c0,0,0.1,0.1,0.1,0.1
			c0.1,0.1,0.1,0.3,0.2,0.4c-0.5-0.1-0.8-0.4-0.8-0.9c-0.1-1,0-1.9,0.6-2.7c0.3-0.4,0.4-1,0.8-1.4c0.3-0.4,0.8-0.5,1.2-0.8
			c0.1-0.1,0.4-0.2,0.3-0.4c-0.1-0.2-0.3-0.2-0.5-0.2c-0.6,0.1-1.2,0.1-1.8,0c-0.2,0-0.4,0-0.4-0.2c0-0.2,0.1-0.4,0.3-0.5
			c0.3-0.2,0.6-0.4,1-0.6c-0.4-0.1-0.8-0.1-1.2,0.1c-0.1,0.1-0.3,0.1-0.5,0c-0.6-0.2-1.3-0.1-1.9,0c-0.5,0.1-1,0.1-1.5,0
			c-0.3,0-0.6-0.1-0.8,0.1c-0.3,0.3-0.6,0.3-1,0.1c-0.4-0.3-0.5-0.6-0.3-1c0.3-0.7,0.8-1.3,1.5-1.6c0.5-0.2,1.1-0.5,1.7-0.5
			c0.2,0,0.1-0.1,0.2-0.2c0.1-0.2,0.2-0.4,0.4-0.6c0.3-0.3,0.6-0.3,0.9,0.1c0.2,0.2,0.3,0.5,0.7,0.3c0,0,0-0.1,0-0.1
			c-0.4-0.2-0.8-0.5-0.7-1c0.1-0.5,0.6-0.6,1-0.7c0.3-0.1,0.7-0.1,1.1-0.1c0.7,0,1.1,0.6,1.2,1.1c0,0.1,0,0.3,0.1,0.4
			c0.1,0.1,0.2,0.2,0.3,0.1c0.1-0.1,0.1-0.2,0-0.3c-0.2-0.2-0.3-0.4-0.1-0.7c0.2-0.2-0.1-0.3-0.2-0.4c-0.2-0.1-0.2-0.3-0.1-0.5
			c0.2-0.2,0.4-0.2,0.7-0.1c0,0,0.1,0.1,0.1,0.1c-0.6,0.8,0.4,0.5,0.5,0.8c-0.2,0.1-0.5,0.3-0.3,0.7c0.1,0.2-0.1,0.3-0.2,0.3
			c-0.2,0.1-0.4,0.2-0.2,0.6c0.1,0.2-0.2,0.2-0.3,0.1c-0.5-0.6-1.2-0.6-1.8-0.4c0.1,0.2,0.4,0.1,0.4,0.3c-0.1,0.3-0.5,0.4-0.7,0.6
			c-0.1,0.1-0.2,0-0.3,0.1c-0.3,0.1-0.3,0.4-0.3,0.6c0,0.2,0.3,0.2,0.5,0.2c0.3-0.1,0.6,0.1,1,0.1c-0.2-0.3-0.5-0.2-0.8-0.3
			c-0.1-0.1-0.4,0-0.4-0.2c0-0.2,0.2-0.2,0.3-0.2c0.2-0.1,0.4-0.2,0.6-0.3c0.6-0.4,1.2,0,1.8,0.1c0.2,0,0.1,0.6-0.2,0.7
			c-0.1,0.1-0.4,0-0.4,0.3c0,0.1,0.3,0.4,0.5,0.6c0.1-0.2-0.1-0.3-0.1-0.5c0.4-0.2,0.6,0.1,0.9,0.2c0.7,0.5,0.9,0.6,1.8,0.6
			c0-0.2-0.2-0.1-0.2-0.2c0.1-0.1,0.3,0,0.4-0.1c-0.2-0.3-0.4,0-0.6,0c-0.2-0.1-0.3-0.1-0.5-0.1c-0.2,0-0.2-0.2-0.2-0.4
			c0-0.1,0-0.2,0.1-0.3c0.2-0.1,0.2,0.1,0.3,0.1c0.2,0.1,0.3,0.3,0.6,0.3c-0.3-0.4-0.5-0.7-0.9-0.9c-0.5-0.3-0.4,0.2-0.5,0.4
			c-0.9-0.2-0.5-0.9-0.6-1.5c0-0.1,0.1-0.2,0.2-0.2c0.2,0,0.4-0.1,0.4,0.2c-0.1,0-0.1,0-0.2,0c0,0.2,0.1,0.4-0.1,0.6
			c-0.1,0.1,0.1,0.2,0.2,0.1c0.2-0.2,0-0.5,0.1-0.7c0.2,0,0.4,0.1,0.5-0.1c0.1-0.2,0.4-0.3,0.7-0.4c-0.9-0.5-1-1.5-1.5-2.2
			c0.4-0.1,0.8,0,0.9-0.5c0-0.1,0.2-0.2,0.3-0.1c0.1,0,0.2,0.1,0.2,0.2c0.1,0.3-0.3,0.2-0.3,0.4c0.2,0.2,0.5,0.2,0.4,0.5
			c-0.1,0.6,0.2,0.8,0.7,0.9c0.6,0.2,0.6,0.3,0.5,1c-0.3-0.1-0.6-0.5-0.8-0.1c-0.2,0.4-0.4,0.8-0.2,1.3c0.3,0.5,0.9,0.4,1.2,0.8
			c0.2,0.2,0.3,0.6,0.1,0.9c-0.2,0.3-0.2,0.5,0.1,0.6l0,0c0,0.2,0.1,0.3,0.2,0.3c0.4,0,0.3,0.3,0.3,0.5c0,0-0.1,0.1-0.1,0.1
			c-0.1,0.1-0.1,0.2-0.2,0.2c0,0-0.1,0.1-0.1,0.1c0,0-0.1,0.1-0.1,0.1c0,0,0,0,0,0c0,0,0,0,0,0c0,0,0,0,0-0.1c0,0,0.1-0.1,0.1-0.1
			c0,0,0.1-0.1,0.1-0.1c0.1,0,0.2-0.1,0.2-0.2c0,0,0.1-0.1,0.1-0.1c0.3-0.5,0.8-0.7,1.4-0.8c0-0.3-0.3-0.1-0.4-0.3
			c0.2-0.3,0.5-0.3,0.7-0.7c0,0,0,0,0,0c0.2,0,0.2-0.1,0.3-0.2c0.2-0.3,0.4-0.3,0.7-0.1l0,0c0,0.3-0.3,0.5-0.5,0.6
			c-0.3,0.1-0.4,0.4-0.5,0.7c0.3,0,0.5-0.1,0.6-0.3c0.5-0.7,1.2-0.9,2-1.1c1.3-0.2,2.5,0,3.7,0.4c0.4,0.1,0.7,0.3,1,0.5
			c0.1,0.1,0.2,0.3,0.4,0.1c-0.6-0.7-1.5-0.9-2.3-1.2c-1.1-0.4-2.3-0.1-3.4,0c-0.2,0-0.4,0.3-0.5-0.1c-0.1-0.3,0.2-0.3,0.4-0.4
			c1.2-0.3,2.4-0.2,3.6-0.4c0.3,0,0.6-0.2,0.9-0.1c0,0.2,0.1,0.4,0.3,0.6c0.5,0.3,1,0.6,1.2,1.2c-0.1-1-0.9-1.3-1.5-1.7
			c-0.2-0.2-0.4-0.1-0.5-0.1c-0.9,0.2-1.7-0.2-2.6,0.1c-0.1,0-0.3,0-0.5,0c1-0.9,2.2-1,3.3-0.8c0.3,0.1,0.6,0.2,0.9,0.2l0,0
			C41.5,13.2,41.8,13.2,42.1,13.3L42.1,13.3z M30.1,11.4c0,0,0.1,0.1,0.1,0.1c0,0,0,0,0-0.1C30.2,11.4,30.2,11.4,30.1,11.4
			c0,0-0.1-0.1-0.1-0.1c0,0,0,0,0,0.1C30,11.4,30.1,11.4,30.1,11.4z M24.7,13.8c-0.1,0-0.2,0-0.2,0c-0.1-0.2-0.2-0.3-0.4-0.2
			c0.1,0.1,0.2,0.2,0.4,0.2c0.1,0.3,0.2,0.5,0.3,0.8c0.2,0.4,0.5,0.6,0.9,0.7c0.4,0.1,0.8,0.2,1.2,0.2c0.2,0,0.3,0.5,0.7,0.2
			c0.5-0.4,0.9-0.2,1.4,0.1c0.6,0.5,1.7,0.6,2.4,0.2c0.2-0.1,0.2-0.2,0.2-0.4c0-0.1,0-0.2-0.1-0.2c-0.2,0-0.3,0-0.3,0.2
			c-0.1,0.2-0.3,0.2-0.5,0.2c-0.8,0.1-1.4,0-1.9-0.7c-0.1-0.1-0.1-0.2-0.2-0.1c-0.5,0.2-1.1,0-1.6,0l0,0c0-0.1-0.2-0.2-0.3-0.2
			c-0.6-0.3-1.2-0.2-1.7-0.2C24.8,14.3,25.3,14,24.7,13.8c0.1,0,0.2,0,0.3-0.1c0-0.1-0.1-0.1-0.2-0.2c-0.1-0.1-0.3-0.2-0.4-0.3
			C24.4,13.5,24.7,13.6,24.7,13.8z M40.4,18.9c0.1-1.3-2.7-3.3-3.9-2.8C37.9,16.8,39.7,17,40.4,18.9z M36.4,18
			c0.1,1,1.2,1.8,1.9,1.4C37.5,19.1,36.9,18.6,36.4,18z M36.6,15.2c1.1,0,1.9,0.8,2.9,0.9C38.6,15.6,37.7,14.9,36.6,15.2z
			 M34.8,16.6c0.1,0.8,0.8,1.1,1.1,1.6C35.8,17.6,35.5,17.1,34.8,16.6z M35.4,19.6c0.2-0.8-0.2-1.5-0.6-2.1
			C35,18.2,35.4,18.8,35.4,19.6z M26,11.3c0.5-0.1,0.9-0.1,1.3-0.1C26.8,11.1,26.4,11,26,11.3z M40,16.9c0-0.2-0.1-0.5-0.4-0.6
			C39.6,16.6,39.8,16.8,40,16.9z M25.7,11.5C25.7,11.5,25.8,11.5,25.7,11.5c0.1-0.1,0.1-0.1,0.1-0.1C25.7,11.4,25.7,11.4,25.7,11.5
			C25.7,11.4,25.7,11.4,25.7,11.5z M33.3,21C33.3,21,33.3,21,33.3,21C33.2,21,33.2,21,33.3,21C33.2,21,33.2,21,33.3,21
			C33.3,21,33.3,21,33.3,21z M35.3,16C35.3,16,35.3,16,35.3,16C35.3,16,35.2,16,35.3,16C35.2,16.1,35.3,16.1,35.3,16
			C35.3,16.1,35.3,16,35.3,16z M24,12.9C24,12.9,24,13,24,12.9c0.1,0,0.1,0,0.1,0C24.1,12.9,24,12.9,24,12.9
			C24,12.9,24,12.9,24,12.9z"/>
		<path class="st2" d="M32.4,1.4c-0.3,0.1-0.5,0.1-0.3,0.5c0.3,0.5,0,1.1,0.3,1.6c0.5,0.9,0.2,1.8,0.4,2.8c0,0.2,0,0.4,0.1,0.7
			c0-0.8,0-1.6,0-2.4c0.3,0.3,0.3,0.7,0.3,1c0.1,0.9,0.1,1.8,0.1,2.7c0,0.3-0.3,0.1-0.3,0.3c0.2,0.2,0.5,0.1,0.7,0.1
			c0.1,0,0.2,0,0.2,0.1c0.1,0.1-0.1,0.1-0.1,0.2c-0.1,0-0.2,0.1-0.2,0.1c-0.4,0-0.9,0-0.6,0.7c0,0.1-0.1,0.1-0.2,0.1
			c-0.1,0-0.2,0-0.3,0c-0.3-0.2-0.6,0.1-0.8,0.2c-0.4,0.2,0.3,0.4,0,0.6c0.3,0.3,0.1,0.5,0,0.8c-0.2,0-0.1-0.2-0.3-0.2
			c-0.6,0-0.6-0.5-0.7-0.8c-0.2-0.5-0.1-0.8,0.5-0.6c-0.1-0.8-0.4-1.5,0.1-2.2c0.1-0.2,0.1-0.6-0.1-0.8c-0.8-1-0.7-2.2-0.6-3.4
			c0-0.5,0-0.9,0-1.4c0-0.1,0-0.3-0.2-0.3l0,0c0.1-0.6,0.1-0.6,0.7-0.4c0,0,0.1,0.1,0.1,0.1c0.1,0.2,0.2,0.4,0.5,0.6
			c-0.1-0.4-0.2-0.6-0.5-0.7c0,0-0.1-0.1-0.1-0.1c0-0.2-0.5-0.4-0.1-0.7c0.3-0.2,0.6,0.1,0.8,0.3C32,1,32,1.3,32.3,1.2
			C32.3,1.3,32.3,1.3,32.4,1.4z M32,4.6c-0.2,0.7-0.2,1.3-0.1,2c0,0,0.1,0,0.1,0C32,5.9,32,5.3,32,4.6z M32,3.6
			c-0.1-0.5-0.1-0.9-0.2-1.4C31.5,2.7,31.7,3.2,32,3.6z M32.5,8c0.2,0,0.3-0.2,0.3-0.2c-0.1-0.1-0.3-0.2-0.5-0.3
			c-0.1,0-0.2,0-0.2,0.1C32.1,7.8,32.3,7.9,32.5,8z"/>
		<path class="st2" d="M21.5,19.7c0.3,0.2,0.3,0.6,0.6,0.9c0.2,0.2,0.4,0.3,0.7,0.3c0-0.2-0.2-0.3-0.3-0.3c-0.8-0.5-0.7-1.2-0.1-1.9
			c0.6-0.7,1.3-1.3,2.1-1.8c0.1,0,0.1-0.1,0.1-0.2c-0.1-0.1-0.2-0.1-0.3-0.1c-0.7,0-1.4,0-2,0c-0.3,0-0.6,0-0.9-0.3
			c1.5,0.3,3-0.4,4.6,0.1c-0.3,0.2-0.6,0.5-0.5,0.9c0.2,0.5,0.7,0.4,1.1,0.5c0.4,0,0.8,0,1.2,0.1c-1.6,0.7-3.1,1.6-5.1,0.9
			c0.7,1,1.6,1.1,3,0.8c-0.3,0.4-1.4,1.1-2.1,1.3c0.6,0.1,0.6,0.1,1.2-0.1c0.4-0.1,0.7-0.3,1.2-0.5c-0.1,0.4-0.2,0.6-0.5,0.7
			c-1,0.5-1.9,0.8-3,0.3c-0.1-0.1-0.3-0.1-0.4-0.1C21.5,20.8,21.3,20.2,21.5,19.7z"/>
		<path class="st2" d="M34.4,26.2c-0.3-0.7-0.9-1.3-1-2.1c0-0.3,0-0.4,0.3-0.4c1.1-0.2,1.8-0.8,2.1-1.8c0.1-0.4,0.3-0.8,0.4-1.2
			c0.9,1.6,0.8,3.2,0,4.7c-0.4,0.8-0.9,1-1.7,0.8C34.5,26.2,34.5,26.2,34.4,26.2z"/>
		<path class="st2" d="M30.5,1.8c0.1,1.2-0.3,2.4,0,3.7c0.1,0.4-0.2,0.9,0,1.3l0,0c-0.1,0-0.3,0-0.4,0c-0.6,0-1.2,0.1-1.5-0.6
			C28.5,6,28.4,6,28.2,6l0,0c0-0.1-0.1-0.1-0.2-0.1l0,0c-0.1-0.3-0.4-0.3-0.7-0.3c0,0,0,0,0,0c-0.1-0.2-0.2-0.3-0.5-0.2l0,0
			c0.1-0.2,0.4,0,0.5-0.3c0.2-0.2,0.3,0,0.4,0.1c0.2,0.2,0.4,0.2,0.5-0.1c0,0.2,0.2,0.2,0.2,0.5c0,0.3,0.4,0.5,0.6,0.8
			c0.1,0.1,0.2-0.1,0.2-0.2c0-0.2-0.1-0.3-0.2-0.5c-0.2-0.3-0.4-0.5-0.4-0.8c-0.1-1,0.1-2,0.6-2.8c0.2-0.4,0.5-0.9,1.2-1.1
			c-0.8,3-0.8,3-0.4,3.6c0-0.5,0-0.9,0-1.3C30.1,2.8,30.1,2.2,30.5,1.8L30.5,1.8z"/>
		<path class="st1" d="M30.5,1.8c-0.4,0.4-0.3,1-0.4,1.5c0,0.4,0,0.8,0,1.3c-0.4-0.7-0.4-0.7,0.4-3.6c-0.6,0.2-0.9,0.6-1.2,1.1
			c-0.5,0.9-0.7,1.8-0.6,2.8c0,0.3,0.3,0.6,0.4,0.8c0.1,0.2,0.2,0.3,0.2,0.5c0,0.1-0.1,0.3-0.2,0.2c-0.2-0.2-0.6-0.5-0.6-0.8
			c0-0.3-0.2-0.3-0.2-0.5c-0.4-1.2-0.3-2.3,0.5-3.3c0.6-0.7,1.4-1.3,2.4-1.4c0.4-0.1,0.9,0.4,1.1,0.9C32,1.3,32,1,31.8,0.9
			c-0.2-0.2-0.4-0.5-0.8-0.3c-0.4,0.3,0.1,0.4,0.1,0.7c0,0,0,0,0,0C30.6,1.1,30.5,1.2,30.5,1.8z M28.3,4.4c0-0.4,0.1-0.7,0.2-1.1
			c0-0.1,0.1-0.2-0.1-0.2c-0.1,0-0.2,0.1-0.2,0.2C28.3,3.6,28.3,4,28.3,4.4z"/>
		<path class="st2" d="M32.4,24.1c0-0.1,0-0.2,0-0.3c0.1-0.2,0-0.6,0.4-0.6c0.3,0,0.2,0.3,0.3,0.5c0.3,0.5,0.2,1.2,0.7,1.7
			c0.1,0.1,0.1,0.2,0,0.3c-0.5-0.2-0.6-0.6-0.8-0.9c-0.1-0.2-0.1-0.4-0.4-0.4C32.6,24.3,32.5,24.2,32.4,24.1z"/>
		<path class="st1" d="M40.1,20.7c0.1-0.3,0-0.6,0.3-0.7C40.4,20.2,40.5,20.6,40.1,20.7z"/>
		<path class="st1" d="M45,17.5c0,0.1,0,0.2-0.1,0.2c0,0,0,0,0,0C44.9,17.6,44.9,17.5,45,17.5L45,17.5z"/>
		<path class="st1" d="M40,20.8c0,0,0.1-0.1,0.1-0.1C40,20.7,40,20.7,40,20.8z"/>
		<path class="st2" d="M34.2,11.2c0.2,0,0.3-0.1,0.3-0.3c0-0.2-0.1-0.3-0.3-0.3c-0.1,0-0.3,0-0.4-0.1c-0.3-0.2-0.7-0.5-0.6-0.9
			c0.1-0.4,0.7-0.4,1.1-0.5l0,0c0,0.3,0.5,0.7-0.1,1c-0.1,0,0,0.2,0.1,0.2c0.2,0,0.4,0.1,0.4-0.1c0-0.5,0.2-0.9,0.5-1.3
			c0-0.1,0.1-0.1,0-0.2c-0.5-0.4-0.3-0.8-0.1-1.3c0.3-1,0.9-1.8,1.7-2.4c0.4-0.3,0.6,0.1,0.9,0.2c-0.2-1,0.5-1.6,0.8-2.3
			c0.2-0.4,0.3,0.1,0.5,0.1c0-0.7-0.5-1.4-0.1-2.2c0.5,0.4,0.5,1.8,0.2,3.3c0,0,0,0.1,0,0.1c0,0,0.1,0,0.1,0
			c0.4-0.3,0.8-0.5,1.2-0.7c0.7-0.3,1.3-0.1,1.6,0.7c0.2,0.7,0.2,1.3-0.3,2c-0.7,1-1.6,1.8-2.2,2.9c-0.1,0.2-0.3,0.4-0.1,0.7
			c0.4,0.7-0.1,1.5-0.7,2c-0.6,0.6-1.2,0.3-1.8,0.1c-0.3-0.1,0-0.3,0.1-0.4c0.3-0.3,0.6-0.6,0.9-0.9c0.3-0.3,0.7-0.5,1-0.7
			c-0.2-0.2-0.4-0.1-0.5,0c-0.1,0.1-0.2,0.2-0.3,0.1c-0.1-0.1,0-0.2,0.1-0.3c0.2-0.4,0.4-0.8,0.7-1.3l0,0c0.1-0.1,0.1-0.1,0.1-0.2
			l0,0c0.3-0.4,0.3-0.9,0.1-1.3c-0.2-0.5-0.1-0.8,0.2-1.1c0.1-0.1,0.3-0.2,0.2-0.5c-0.5,0.2-0.5,0.9-1.2,0.9
			c0.6,0.2,0.6,1.1,0.1,2.1c-0.2-0.2-0.4-0.4-0.5-0.7c-0.2-0.7-0.5-0.4-0.8-0.1c-0.1,0.1-0.3,0.3-0.4,0.5c-0.2,0.2-0.3,0.4,0,0.6
			C36.8,8.8,36.8,9,36.5,9c-0.7,0.2-1.3,1-1.3,1.7c0.2,0,0.3-0.3,0.3-0.4c0.2-0.5,0.5-0.9,1-1c0.5-0.1,0.6-0.5,0.4-0.9
			c-0.2-0.3,0-0.5,0.2-0.7c0.3-0.2,0.4,0.1,0.5,0.2c0.3,0.4,0.6,0.9,0.3,1.5c0-0.2,0-0.4-0.1-0.8c-0.1,0.5-0.3,0.8-0.3,1.1
			c0,1-0.9,1.3-1.4,2c-0.1,0.2-0.3,0-0.4-0.2c0,0.4-0.1,0.8,0.5,0.5c0.4-0.2,0.8,0,1.2,0.2c-0.5,0.3-1.1,0-1.4,0.6l0,0
			c-0.8,0.4-0.8-0.5-1.2-0.8c-0.2,0.2,0,0.3-0.1,0.5c-0.2,0-0.2-0.3-0.5-0.2c0,0.2,0.1,0.5-0.3,0.5c-0.3,0.1,0,0.4-0.1,0.6
			c-0.4-0.2-0.4-0.9-0.1-1.2c0,0,0,0,0,0c0.1,0,0.1,0,0.1-0.1l0,0c0.1,0,0.3,0,0.3-0.1C34.1,11.8,34.3,11.5,34.2,11.2L34.2,11.2z
			 M36.1,6.5c0.3-0.2,0.4-0.5,0.4-0.8C36.3,6,36.1,6.2,36.1,6.5c-0.2,0.2-0.3,0.4-0.3,0.8C36.1,7.1,36.1,6.8,36.1,6.5z M37.2,6.4
			c0.1,0.1-0.1,0.4,0.2,0.4c0.2,0,0.5-0.2,0.4-0.3c-0.2-0.3,0.1-0.8-0.3-0.8C37.3,5.7,37.3,6.2,37.2,6.4z M38.8,3.3
			c-0.5,0.2-0.5,0.6-0.6,1c0,0.2,0.1,0.3,0.2,0.3c0.1,0,0.3-0.1,0.2-0.2C38.4,4.1,38.8,3.7,38.8,3.3z M40.4,4.4
			c0.3-0.1,0.4-0.2,0.6-0.5C40.6,4,40.5,4.1,40.4,4.4z M35.8,7.5c-0.2,0.1-0.3,0.3-0.3,0.6C35.7,7.9,35.8,7.7,35.8,7.5z M39.8,5
			C39.8,5,39.8,5,39.8,5c-0.1,0-0.1,0-0.1,0C39.7,5,39.7,5.1,39.8,5C39.7,5.1,39.8,5,39.8,5z M40.1,4.6L40.1,4.6L40.1,4.6L40.1,4.6z
			 M39.9,4.8L39.9,4.8L39.9,4.8L39.9,4.8z M39.5,5.2L39.5,5.2L39.5,5.2L39.5,5.2z"/>
		<path class="st2" d="M40.5,8.8c-0.3,0-0.4,0.2-0.6,0.4c-0.1,0.2-0.3,0.4-0.6,0.4C39.8,9,40,8.2,40.6,7.8c0.3-0.2,0.6-0.5,0.7-0.9
			c0.2-0.4,0.4-0.6,0.9-0.6c0.6,0,1.2-0.1,1.9-0.1c0.4,0,0.7,0.2,0.7,0.5c0.1,0.3,0.4,0.7-0.1,1c-0.4,0.4-0.6,1-1,1.5
			c-0.2,0.2,0.1,0.3,0.2,0.3c0.5,0.1,1,0.3,1.3,0.6c0.3,0.3,0.8,0.5,0.4,1.1c-0.1,0.1-0.1,0.5,0.1,0.7c0.4,0.3,0.1,0.4-0.1,0.5
			c-0.1,0.1-0.2,0.1-0.4,0.1c-0.3,0.1-0.6,0.6-0.9,0.5c-0.3-0.1-0.5-0.5-0.8-0.7c-0.7-0.6-1.4-1-2.4-0.7c-0.2,0-0.4,0-0.6-0.1
			c0.5-0.6,1.3-0.7,2-0.9c0.7-0.3,1.5-0.1,2.2,0.1c-0.7-0.6-1.5-0.4-2.3-0.3c0.2-0.5,0.9-0.5,0.8-1.1c-0.7,0.5-1.4,1-2.1,1.5
			c-0.5,0.3-1,0.4-1.5,0.6c-0.3,0.2-0.3-0.1-0.3-0.3C39.3,10.1,39.9,9.5,40.5,8.8c0.8-0.4,1.5-1,2.2-1.5C41.9,7.7,41,8,40.5,8.8z
			 M41.1,9.4c-0.5,0.4-1,0.7-1.3,1.3c0.5-0.2,1-0.2,1.2-0.7c0.2-0.1,0.5-0.1,0.6-0.3c0.6-0.5,1.3-1,1.9-1.5c0.1-0.1,0.2-0.2,0.3-0.4
			c0.1-0.1,0.1-0.2,0-0.3c-0.1-0.1-0.2,0-0.3,0.1c-0.7,0.6-1.4,1.1-2,1.7C41.3,9.2,41.2,9.2,41.1,9.4z"/>
		<path class="st2" d="M28.2,6c0,0.2,0.2,0.3,0.3,0.4c0.1,0.2,0.3,0.4,0.3,0.5c-0.1,0.5,0,0.9,0.3,1.3c0.1,0.1,0,0.3,0,0.2
			C28.6,8.4,28.6,9,28.3,9c-0.2-0.3-0.4-0.5-0.9-0.5c0.3,0.2,0.6,0.4,0.8,0.6c0.1,0.2,0.2,0.3,0.2,0.5c0.1,0.4,0.2,0.8-0.4,0.6
			c0,0,0,0-0.1,0c-0.5,0.6-1,0-1.5,0c0,0-0.1-0.1-0.1-0.1c-0.1-0.1-0.2-0.1-0.3-0.1c-0.1-0.1-0.2-0.1-0.3-0.1c0.1,0,0.2,0,0.3,0
			c0.1,0.1,0.2,0.1,0.3,0.1c0,0,0.1,0.1,0.1,0.1c0,0.2-0.2,0.2-0.3,0.2c-0.5,0.1-1,0.1-1.4,0.6c-0.1,0.1-0.2,0.1-0.3,0
			c-0.6-0.4-1-0.9-1.2-1.6c-0.1-0.2-0.1-0.3,0.1-0.3c0.4-0.1,0.8-0.2,1.2-0.3C24.7,8.8,24.8,9,25,9.1C25.1,9,25.1,8.9,25,8.8
			c-0.1-0.2-0.1-0.4,0.1-0.6c0.2-0.2,0.5-0.2,0.7,0c0.2,0.1,0.5,0.3,0.7,0.5c0.2,0.2,0.3,0.1,0.4-0.1c0.2-0.2-0.1-0.2-0.2-0.3
			C26.5,8.2,26.2,8,25.8,8c-0.9,0-1.7-1.1-1.4-1.9c0.1-0.3,0.2-0.7,0.1-1c-0.1-0.5,0.1-0.7,0.6-0.7c0.8,0,1.1,0.1,1,0.7
			c0,0.3,0.2,0.4,0.2,0.7c0,0,0,0,0,0c-0.4,0.1-0.3,0.4-0.2,0.6c0.3,0.6,0.5,1.3,1,1.8c0,0.1,0,0.2,0.2,0.2c0,0,0.1,0,0.1-0.1
			c0-0.1-0.1-0.2-0.2-0.2c-0.1-0.4-0.3-0.8-0.5-1.2c-0.2-0.5,0.1-1.2,0.7-1.3c0,0,0,0,0,0c0.1,0.3,0.4,0.3,0.7,0.3c0,0,0,0,0,0
			C28,6,28.1,6,28.2,6L28.2,6z M27,9C27,9,26.9,9,27,9C26.9,9,27,9,27,9c0,0.1,0,0.1,0.1,0.1c0,0,0.1,0.1,0.1,0.1
			c0,0,0.1,0.1,0.1,0.1c0,0,0,0,0-0.1c0,0-0.1,0-0.1-0.1c0,0-0.1-0.1-0.1-0.1C27.1,9.1,27,9,27,9z M28.2,9.6
			c-0.3-0.2-0.4-0.2-0.7-0.1C27.8,9.8,28,9.7,28.2,9.6z M25.1,9.3c0,0.1-0.1,0.1-0.1,0.1c0,0,0.1,0.1,0.1,0.1c0,0,0-0.1,0-0.1
			C25.2,9.4,25.2,9.3,25.1,9.3z"/>
		<path class="st2" d="M34.3,9.1c0-0.7,0-1.5-0.1-2.2C34.2,6.4,34,6,33.9,5.6c-0.2-0.4-0.6-0.9-0.1-1.4c0.1-0.1,0-0.4,0.1-0.6
			c0.4-1.6,1.6-2.4,2.8-3.2c0.5-0.3,1.1-0.1,1.6,0c0.3,0.1,0.4,0.3,0.3,0.6c-0.1,0.4,0,0.8-0.1,1.2c-0.2,0.9-0.8,1.5-1,2.4
			c0,0,0,0.1-0.1,0.1c-0.9,0.1-1.3,0.8-1.9,1.5c0-0.7-0.2-1.3-0.2-2c0-0.1,0-0.2,0-0.2c-0.5-1.3,0.5-1.9,1.2-2.7
			c0.2-0.2,0.4-0.4,0.7-0.6c-0.1-0.2-0.3-0.1-0.4,0c-0.6,0.5-1.3,1-1.6,1.8c0,0.1-0.1,0.2-0.2,0.3c-0.5,0.7-0.5,0.7-0.1,1.5
			C35.3,5,35.4,6,35.1,6.8c-0.2,0.6-0.4,1.2-0.4,1.9C34.6,9,34.6,9.1,34.3,9.1C34.3,9.1,34.3,9.1,34.3,9.1z M37.8,1.1
			c0-0.2,0.1-0.3-0.1-0.4c-0.1-0.1-0.2,0-0.2,0.1c-0.7,0.6-1,1.4-1.5,2.1c-0.1,0.1,0,0.3,0.2,0.4c0.1,0.1,0.2-0.1,0.2-0.2
			c0.4-0.5,0.8-1,1.1-1.5C37.7,1.4,37.8,1.3,37.8,1.1z"/>
		<path class="st2" d="M31.1,20.1c0.2,0.3,0.1,0.5,0.1,0.7c0,0.4,0.1,0.7,0.4,0.8c0.5,0.3,0.5,0.7,0.7,1.1c0.1,0.2,0,0.5-0.1,0.8
			c-0.4,0.8-0.9,1.5-1.4,2.2c-0.2,0.4-0.8,0.3-1.3,0.4c-0.3,0-0.4-0.4-0.5-0.7c-0.1-0.2-0.1-0.3-0.2-0.5c-0.3-0.8-0.4-1.5,0.4-2.2
			C30.1,22,30.6,21.1,31.1,20.1z"/>
		<path class="st2" d="M41.3,12.9c-0.6-0.3-1.1-0.6-1.8-0.3c-0.4,0.1-0.9-0.1-1.4,0c0.4-0.4,0.8-0.7,1.4-0.7c0.8,0,1.6,0,2.4,0
			c0.7,0,1.3,0.2,1.7,0.7c0.4,0.5,1.1,0.8,1.1,1.6c0,0.1,0.1,0.3-0.1,0.4c-0.4,0.4-0.8,0.8-1.4,1c-0.3,0.1-0.2-0.2-0.2-0.3
			c0-0.6-0.2-1.1-0.5-1.6c-0.1-0.2-0.2-0.3-0.4-0.3c0,0,0,0,0,0C42,12.9,41.6,12.9,41.3,12.9L41.3,12.9z"/>
		<path class="st2" d="M21.6,8.1c0.4-0.2,0.7-0.5,1.2-0.5c0.6,0,1.1,0.1,1.7,0.1c0.2,0,0.5,0,0.4,0.3c0,0.2-0.1,0.5-0.5,0.5
			c-0.3,0-0.5,0-0.8,0c-0.7,0.1-0.9,0.3-0.8,1c0,0.2,0.1,0.4,0.2,0.6c-0.5-0.1-1.1-0.1-1.2-0.7c0-0.2-0.3-0.3-0.3-0.5
			C21.3,8.7,21.2,8.3,21.6,8.1c0,0,0,0.1,0.1,0.1C21.6,8.2,21.6,8.2,21.6,8.1z"/>
		<path class="st2" d="M36,13c0.4,0,0.8-0.3,1.2-0.2c0.1,0,0.2,0,0.2,0.1c0,0.1-0.1,0.2-0.1,0.2c-0.4,0.1-0.5,0.4-0.7,0.6
			c-0.1,0.2-0.3,0.3-0.5,0.3c-0.1,0-0.1,0-0.2-0.1c-0.1-0.1,0.3-0.1,0.1-0.2c-0.2-0.1-0.3,0.1-0.3,0.3c0,0.2,0,0.3,0,0.5
			c0,0.3-0.1,0.3-0.3,0.3c0,0,0,0,0,0c0-0.3,0-0.6,0-1c-0.4,0.5-1.1,0.6-1,1.4c0,0,0,0,0,0c-0.2,0-0.5,0-0.6,0.3
			c-0.2,0.3-0.6,0.2-1,0.1c-0.4-0.1-0.3-0.5-0.3-0.8c0-0.4,0.4-0.4,0.7-0.4c0,0.1,0,0.2,0.1,0.3c0,0,0.1,0,0.1,0
			c0-0.1-0.1-0.2-0.2-0.2c-0.1-0.1-0.3-0.3,0-0.4c0.3-0.1,0.3,0.2,0.3,0.3c0.1,0.2,0.1,0.5,0.1,0.8c0.3-0.4,0.5-0.6,0.7-0.9
			c0.2-0.2,0.4-0.5,0.9-0.5C35.3,13.6,35.8,13.4,36,13C36,13,36,13,36,13z"/>
		<path class="st2" d="M21.9,11.5c0.1-0.3,0.3-0.6,0.7-0.6c0.2,0.4,0.4,0.1,0.6-0.1c-0.2,0-0.4,0-0.6,0.1c0.1-0.2,0.2-0.3-0.1-0.3
			c-0.9,0-1.3-0.7-1.7-1.3c-0.2-0.3-0.1-0.6,0.4-0.9c-0.1,0.7,0.4,1,0.6,1.5c0.1,0.3,0.5,0.4,0.8,0.4c0.7,0,1,0.3,1.3,0.8
			c0.3,0.4,0.3,0.4-0.1,0.8c-0.1,0.1-0.2,0.2-0.3,0.3c-0.2,0.6-0.5,0.4-0.8,0.2c-0.2-0.2-0.6-0.2-0.8-0.4
			C21.7,11.8,21.5,11.6,21.9,11.5c0.2,0.2,0.4,0.1,0.6-0.1c0,0,0-0.1,0-0.1c0,0,0,0-0.1,0C22.3,11.4,22.1,11.5,21.9,11.5z"/>
		<path class="st2" d="M21.2,11.3c0.1,0,0.2,0.1,0.2,0.1c0.3,0.9,0.3,0.9,1.1,1.3c-0.6,0.3-1.2,0.6-1.8,0.8
			c-0.3,0.1-0.4-0.2-0.6-0.4c-0.2-0.3-0.2-0.6,0.1-0.9c0.2-0.3,0.7-0.4,0.8-0.9c0,0,0,0,0,0C21.1,11.4,21.2,11.3,21.2,11.3
			C21.2,11.3,21.2,11.3,21.2,11.3z"/>
		<path class="st2" d="M30.9,8c-0.1,0.2,0.2,0.7-0.3,0.7c-0.4,0-1,0.3-1.3-0.4c-0.1-0.4-0.6-0.7,0-1.1C29.5,7,29.8,7,30,6.9
			c0.1,0,0.2,0.1,0.2,0.1C30.2,7.5,31.1,7.4,30.9,8z"/>
		<path class="st2" d="M32.4,12.4c-0.1-0.1-0.2-0.2-0.2-0.3c0-0.1-0.2-0.3-0.1-0.4c0.1-0.1,0.3,0,0.4,0.1c0.1,0.1,0.3,0.1,0.3-0.1
			c0-0.2,0.6-0.2,0.3-0.5C33,11,32.9,10.8,33,10.6l0,0c0.4-0.2,0.8,0.3,1.2,0.2c0.2,0,0.1,0.2,0,0.4c0,0,0,0,0,0
			c-0.3,0.2-0.7,0.4-0.5,0.9c0,0.1,0.2,0.1,0.1,0.3c0,0,0,0,0,0c0,0-0.1,0.1-0.1,0.1c0,0,0,0,0,0c-0.4-0.3-0.8-0.4-1.2,0
			C32.5,12.4,32.4,12.4,32.4,12.4L32.4,12.4z"/>
		<path class="st2" d="M32.4,1.8c0.4,0.6,1,1.1,1.1,1.8c0,0.2,0.1,0.5-0.2,0.6C33.1,4.4,33,4.1,32.8,4c-0.2-0.2-0.2-0.4-0.3-0.7
			C32.5,2.8,32.5,2.3,32.4,1.8z"/>
		<path class="st2" d="M45,17.5c-0.1,0-0.1,0.1-0.1,0.2c-0.2,0-0.4,0.6-0.7,0c-0.1-0.1-0.1-0.2,0-0.3c0.4-0.5,0.3-1,0-1.5
			c-0.1-0.2-0.1-0.3-0.1-0.5c0.3,0.4,0.4,0.9,0.9,1.2C45.3,16.8,45.1,17.2,45,17.5z"/>
		<path class="st2" d="M33.5,5.6c0.5,0.8,0.6,1.7,0.5,2.6c0,0.1-0.1,0.2-0.2,0.2c-0.2,0-0.2-0.1-0.2-0.2C33.7,7.3,33.4,6.5,33.5,5.6
			L33.5,5.6z"/>
		<path class="st2" d="M32.4,12.4c0,0.1,0,0.3,0,0.4c0.4,0.4,0,0.8-0.1,1.2c0,0.1-0.2,0.3-0.3,0.1c-0.2-0.2-0.5-0.3-0.4-0.6
			c0-0.3,0.2-0.1,0.4-0.1c0.1,0,0.2,0,0.2,0c0.1-0.1,0-0.2,0-0.3C32,12.8,31.9,12.6,32.4,12.4C32.4,12.4,32.4,12.4,32.4,12.4z"/>
		<path class="st2" d="M26.1,19c-0.1,0.2,0.6,0.5-0.1,0.8c0-0.5-0.2-0.6-0.6-0.5c-0.7,0.2-1.5,0.4-2.2-0.3
			C24.2,19.1,25.1,19.2,26.1,19L26.1,19z"/>
		<path class="st2" d="M28.8,10.3c-0.3-0.6-0.2-1.1,0.3-1.4c0.2-0.1,0.3,0,0.3,0.1c0.1,0.2,0.2,0.5,0.1,0.7c-0.1,0.2-0.3,0-0.4,0
			C28.8,9.7,29,10.1,28.8,10.3z"/>
		<path class="st2" d="M21.1,11.4c-0.5,0.2-0.9,0.6-1.3,1c-0.1-0.2,0-0.3,0.1-0.4c0.3-0.3,0.6-0.6,0.9-0.9c0.1-0.1,0.2-0.2,0.4-0.2
			c0.2,0,0.5-0.2,0.6,0.1c0,0.3-0.3,0.1-0.5,0.2c0,0-0.1,0.1-0.1,0.2c0,0,0,0,0,0C21.2,11.3,21.1,11.3,21.1,11.4L21.1,11.4z"/>
		<path class="st2" d="M27.6,24c-0.6,0.7-1.2,0.7-1.7-0.2C26.5,24.1,27,24.5,27.6,24z"/>
		<path class="st2" d="M31.7,13c-0.2,0.1-0.3,0.3-0.5,0.3c-0.2,0-0.3-0.2-0.2-0.4c0.1-0.2,0.1-0.4,0.3-0.3
			C31.5,12.6,31.6,12.8,31.7,13z"/>
		<path class="st2" d="M32.2,16c0-0.3,0.1-0.4,0.4-0.3c0.2,0,0.5,0.1,0.8,0.2C32.9,16.2,32.6,16.2,32.2,16C32.2,16,32.2,16,32.2,16z
			"/>
		<path class="st2" d="M29.3,12.2c0-0.2-0.5-0.4-0.2-0.7c0.1-0.1,0.3-0.1,0.4,0C29.7,11.8,29.4,12,29.3,12.2z"/>
		<path class="st2" d="M33.3,13.2c0,0-0.1,0.1-0.2,0.2c-0.2,0-0.2-0.2-0.2-0.3c0-0.1,0-0.3,0.2-0.3C33.2,12.8,33.3,12.9,33.3,13.2z"
			/>
		<path class="st2" d="M38.7,8.5c-0.1,0.1-0.3,0.1-0.2-0.1c0.1-0.3,0.2-0.7,0.3-1c0,0.3,0,0.6,0,0.9c0,0,0,0,0,0
			C38.7,8.3,38.7,8.4,38.7,8.5L38.7,8.5z"/>
		<path class="st2" d="M33,10.6c-0.3-0.1-0.1-0.4-0.3-0.5C33.3,10.2,33.3,10.2,33,10.6C33,10.6,33,10.6,33,10.6z"/>
		<path class="st2" d="M34.1,13.1c0.1,0,0.2,0,0.2,0.1c0,0.1,0,0.3-0.1,0.3c-0.1,0-0.2-0.1-0.2-0.2C34,13.3,34,13.1,34.1,13.1z"/>
		<path class="st2" d="M23.5,17.2c-0.2,0.2-0.4,0.5-0.7,0.4l0,0C22.9,17.2,23.2,17.2,23.5,17.2L23.5,17.2z"/>
		<path class="st2" d="M26.3,5.6c0.1,0,0.2-0.1,0.3-0.1c0,0,0,0,0,0c0,0.2-0.1,0.4-0.2,0.6C26.2,6,26.4,5.8,26.3,5.6L26.3,5.6z"/>
		<path class="st2" d="M23.5,17.1c0-0.1,0-0.2,0.2-0.2c0,0,0,0,0,0C23.7,17.1,23.6,17.1,23.5,17.1C23.5,17.2,23.5,17.1,23.5,17.1z"
			/>
		<path class="st2" d="M25.7,16.9c0.1,0.1,0.1,0.2,0,0.2C25.6,17.2,25.6,17.1,25.7,16.9C25.6,17,25.7,16.9,25.7,16.9z"/>
		<path class="st2" d="M26.1,19c0,0,0.1-0.1,0.1-0.1C26.2,19,26.1,18.9,26.1,19C26.1,19,26.1,19,26.1,19z"/>
		<path class="st2" d="M26.8,23.9C26.8,23.9,26.8,23.9,26.8,23.9C26.7,23.9,26.7,23.9,26.8,23.9C26.7,23.8,26.8,23.8,26.8,23.9
			C26.8,23.8,26.8,23.9,26.8,23.9z"/>
		<path class="st2" d="M30.5,6.8C30.5,6.8,30.5,6.8,30.5,6.8C30.5,6.8,30.5,6.8,30.5,6.8C30.5,6.8,30.5,6.8,30.5,6.8z"/>
		<path class="st2" d="M22.8,17.6C22.8,17.6,22.8,17.6,22.8,17.6C22.8,17.6,22.8,17.6,22.8,17.6C22.8,17.6,22.8,17.6,22.8,17.6z"/>
		<path class="st2" d="M33.5,5.6C33.5,5.6,33.5,5.6,33.5,5.6C33.5,5.6,33.5,5.6,33.5,5.6C33.5,5.6,33.5,5.6,33.5,5.6z"/>
		<path class="st2" d="M26.6,5.5c0,0,0.1-0.1,0.1-0.1l0,0C26.7,5.5,26.7,5.5,26.6,5.5C26.6,5.5,26.6,5.5,26.6,5.5z"/>
		<path class="st2" d="M26.8,5.4c0,0,0.1-0.1,0.1-0.1c0,0,0,0,0,0C26.8,5.3,26.8,5.4,26.8,5.4L26.8,5.4z"/>
		<path class="st1" d="M24.8,14.6c0.6,0,1.2,0,1.7,0.2c0.1,0.1,0.2,0.1,0.3,0.2c-0.4,0-0.7-0.3-1.2-0.2c0.3,0.3,0.7,0.3,1.1,0.4
			c0.2,0,0.1-0.1,0.1-0.2c0.5,0,1.1,0.2,1.6,0c0.1,0,0.2,0,0.2,0.1c0.5,0.7,1.1,0.8,1.9,0.7c0.2,0,0.4,0,0.5-0.2
			c0.1-0.2,0.2-0.3,0.3-0.2c0.1,0,0.1,0.1,0.1,0.2c0,0.2,0,0.3-0.2,0.4c-0.7,0.4-1.8,0.4-2.4-0.2c-0.4-0.4-0.9-0.5-1.4-0.1
			c-0.4,0.3-0.4-0.2-0.7-0.2c-0.4,0-0.8-0.2-1.2-0.2C25.3,15.1,25,14.9,24.8,14.6C24.8,14.6,24.8,14.6,24.8,14.6z"/>
		<path class="st1" d="M29.5,17.9c0,0.4,0.3,0.3,0.6,0.3c0.8,0,1,0.2,0.7,0.9c-0.2,0.5-0.4,1-0.8,1.4c-0.8,0.8-1.6,1.6-2.2,2.6
			c0,0.1-0.1,0.2-0.3,0.1c0.3-0.8,0.9-1.4,1.4-2c0.5-0.6,1.2-1,1.4-1.8c0-0.1,0.1-0.3,0.2-0.4c0.1-0.5,0-0.7-0.5-0.6
			c-0.3,0.1-0.6,0-0.7-0.3C29.2,18.1,29.2,18,29.5,17.9C29.5,17.9,29.5,17.9,29.5,17.9z"/>
		<path class="st1" d="M40.4,18.9c-0.6-1.9-2.4-2.1-3.9-2.8C37.7,15.6,40.5,17.6,40.4,18.9z"/>
		<path class="st1" d="M36.4,18c0.5,0.6,1.1,1.1,1.9,1.4C37.6,19.8,36.5,19,36.4,18z"/>
		<path class="st1" d="M36.6,15.2c1.2-0.3,2,0.4,2.9,0.9C38.5,15.9,37.7,15.1,36.6,15.2z"/>
		<path class="st1" d="M34.3,15.1c-0.1-0.8,0.6-0.9,1-1.4c0,0.4,0,0.7,0,1c-0.3-0.2-0.5-0.1-0.7,0.1C34.5,15,34.5,15.2,34.3,15.1z"
			/>
		<path class="st1" d="M40.7,13.5c0.6,0.5,1.4,0.8,1.5,1.7c-0.2-0.6-0.7-0.9-1.2-1.2C40.9,14,40.8,13.8,40.7,13.5
			C40.7,13.5,40.7,13.5,40.7,13.5z"/>
		<path class="st1" d="M34.8,16.6c0.6,0.5,1,1,1.1,1.6C35.7,17.6,34.9,17.4,34.8,16.6z"/>
		<path class="st1" d="M35.4,19.6c0-0.8-0.4-1.4-0.6-2.1C35.2,18.1,35.7,18.8,35.4,19.6z"/>
		<path class="st1" d="M24.7,13.8c0.6,0.2,0.1,0.5,0.1,0.8c0,0,0,0,0,0c-0.1-0.3-0.2-0.5-0.3-0.8c0,0,0,0,0,0
			C24.6,13.8,24.6,13.8,24.7,13.8L24.7,13.8z"/>
		<path class="st1" d="M41.3,12.9c0.3,0.1,0.7,0.1,0.8,0.5C41.8,13.2,41.5,13.2,41.3,12.9z"/>
		<path class="st1" d="M26,11.3c0.5-0.3,0.9-0.2,1.3-0.1C26.8,11.2,26.4,11.2,26,11.3z"/>
		<path class="st1" d="M24.7,13.8c0-0.2-0.3-0.3-0.3-0.5c0.2,0.1,0.3,0.2,0.4,0.3c0.1,0,0.2,0.1,0.2,0.2
			C25,13.8,24.8,13.7,24.7,13.8C24.7,13.8,24.7,13.8,24.7,13.8z"/>
		<path class="st1" d="M29.3,12.8c0,0.2,0.1,0.5-0.1,0.7c-0.1,0.1-0.3-0.1-0.2-0.1c0.2-0.2,0.1-0.4,0.1-0.6
			C29.2,12.7,29.3,12.7,29.3,12.8C29.3,12.8,29.3,12.8,29.3,12.8z"/>
		<path class="st1" d="M40,16.9c-0.2-0.1-0.4-0.3-0.4-0.6C39.9,16.4,40,16.6,40,16.9z"/>
		<path class="st1" d="M24.5,13.8c-0.2,0-0.3-0.1-0.4-0.2C24.3,13.5,24.4,13.6,24.5,13.8C24.5,13.8,24.5,13.8,24.5,13.8z"/>
		<path class="st1" d="M25.7,11.5C25.7,11.4,25.7,11.4,25.7,11.5c0-0.1,0-0.1,0.1-0.1C25.8,11.4,25.8,11.4,25.7,11.5
			C25.8,11.5,25.7,11.5,25.7,11.5z"/>
		<path class="st1" d="M26.2,23c0-0.1-0.1-0.1-0.1-0.2c0,0,0,0,0.1-0.1C26.1,22.9,26.2,22.9,26.2,23L26.2,23z"/>
		<path class="st1" d="M32.5,16.9c0,0.2-0.1,0.2-0.2,0.2l0,0C32.4,17.1,32.4,17,32.5,16.9C32.5,16.9,32.5,16.9,32.5,16.9z"/>
		<path class="st1" d="M33.3,21C33.3,21,33.3,21,33.3,21C33.2,21,33.2,21,33.3,21C33.2,21,33.2,21,33.3,21C33.3,21,33.3,21,33.3,21z
			"/>
		<path class="st1" d="M35.3,16C35.3,16,35.3,16.1,35.3,16C35.3,16.1,35.2,16.1,35.3,16C35.2,16,35.3,16,35.3,16
			C35.3,16,35.3,16,35.3,16z"/>
		<path class="st1" d="M24,12.9C24,12.9,24,12.9,24,12.9c0.1,0,0.1,0,0.1,0C24.1,12.9,24.1,13,24,12.9C24,13,24,12.9,24,12.9z"/>
		<path class="st1" d="M30.1,11.4c-0.1,0-0.1,0-0.2,0c0,0,0,0,0-0.1C30.1,11.3,30.1,11.4,30.1,11.4L30.1,11.4z"/>
		<path class="st1" d="M30.1,11.4c0,0,0.1,0,0.1,0c0,0,0,0,0,0.1C30.2,11.5,30.2,11.4,30.1,11.4C30.1,11.4,30.1,11.4,30.1,11.4z"/>
		<path class="st1" d="M26.2,23c0,0,0.1,0.1,0.1,0.1l0,0C26.3,23.1,26.2,23.1,26.2,23C26.2,23,26.2,23,26.2,23z"/>
		<path class="st1" d="M26.3,23.1c0,0,0.1,0.1,0.1,0.1c0,0,0,0,0,0C26.4,23.2,26.3,23.2,26.3,23.1C26.3,23.1,26.3,23.1,26.3,23.1z"
			/>
		<path class="st1" d="M31.7,17.6C31.7,17.6,31.7,17.6,31.7,17.6C31.8,17.6,31.8,17.6,31.7,17.6C31.7,17.6,31.7,17.6,31.7,17.6
			C31.7,17.6,31.7,17.6,31.7,17.6z"/>
		<path class="st1" d="M32.1,17.4C32,17.4,32,17.4,32.1,17.4C32,17.4,32,17.4,32.1,17.4C32,17.4,32,17.4,32.1,17.4L32.1,17.4z"/>
		<path class="st1" d="M32.1,17.4c0,0,0.1-0.1,0.1-0.1c0,0,0,0,0,0C32.1,17.3,32.1,17.3,32.1,17.4C32.1,17.4,32.1,17.4,32.1,17.4z"
			/>
		<path class="st1" d="M32.3,17.2c0,0-0.1,0.1-0.1,0.1c0,0,0,0,0,0C32.2,17.2,32.2,17.2,32.3,17.2C32.3,17.2,32.3,17.2,32.3,17.2z"
			/>
		<path class="st1" d="M32.5,16.9c0,0,0.1-0.1,0.1-0.1c0,0,0,0,0,0C32.6,16.9,32.5,16.9,32.5,16.9C32.5,16.9,32.5,16.9,32.5,16.9z"
			/>
		<path class="st1" d="M30.1,16.6C30.2,16.6,30.2,16.6,30.1,16.6C30.2,16.6,30.2,16.6,30.1,16.6C30.2,16.6,30.1,16.6,30.1,16.6
			C30.1,16.6,30.1,16.6,30.1,16.6z"/>
		<path class="st1" d="M32,4.6c0,0.7,0,1.3,0,2c0,0-0.1,0-0.1,0C31.8,5.9,31.8,5.2,32,4.6z"/>
		<path class="st1" d="M32,3.6c-0.3-0.4-0.5-0.9-0.2-1.4C31.8,2.7,31.9,3.1,32,3.6z"/>
		<path class="st1" d="M32.5,8c-0.2-0.1-0.4-0.2-0.4-0.4c0-0.1,0.1-0.1,0.2-0.1c0.2,0.1,0.4,0.2,0.5,0.3C32.8,7.8,32.6,8,32.5,8z"/>
		<path class="st1" d="M31.3,1.4c0.3,0.1,0.3,0.3,0.5,0.7C31.4,1.9,31.3,1.7,31.3,1.4C31.3,1.5,31.3,1.5,31.3,1.4z"/>
		<path class="st1" d="M31.2,1.5c0,0-0.1-0.1-0.1-0.1c0,0,0,0,0,0C31.2,1.4,31.2,1.4,31.2,1.5C31.3,1.5,31.3,1.5,31.2,1.5z"/>
		<path class="st1" d="M26.7,5.4c0,0,0.1-0.1,0.1-0.1c0.2,0,0.4,0,0.5,0.2c-0.6,0.1-0.9,0.7-0.7,1.3C26.8,7.2,27,7.6,27.1,8
			c0,0,0,0,0,0c-0.5-0.5-0.6-1.2-1-1.8c-0.1-0.1-0.2-0.5,0.2-0.6c0.1,0.1-0.1,0.3,0.1,0.5c0.2-0.2,0.2-0.4,0.2-0.6
			C26.7,5.5,26.7,5.5,26.7,5.4z"/>
		<path class="st1" d="M28,5.9c-0.3-0.1-0.6,0-0.7-0.3C27.6,5.6,27.9,5.6,28,5.9z"/>
		<path class="st1" d="M28.2,6C28.1,6,28,6,28,5.9C28.1,5.9,28.2,5.9,28.2,6z"/>
		<path class="st2" d="M28.3,4.4c0-0.4,0-0.7,0-1.1c0-0.1,0.1-0.2,0.2-0.2c0.1,0,0.1,0.1,0.1,0.2C28.5,3.7,28.4,4,28.3,4.4z"/>
		<path class="st1" d="M37.2,6.4c0.1-0.2,0-0.7,0.3-0.7c0.4,0,0.1,0.6,0.3,0.8c0.1,0.1-0.2,0.3-0.4,0.3C37.1,6.8,37.3,6.6,37.2,6.4z
			"/>
		<path class="st1" d="M33.9,12.3c0.1-0.2-0.1-0.2-0.1-0.3c-0.2-0.5,0.1-0.7,0.5-0.9c0.1,0.3-0.1,0.6,0,1
			C34.2,12.3,34,12.3,33.9,12.3z"/>
		<path class="st1" d="M38.8,3.3c-0.1,0.4-0.4,0.8-0.1,1.1c0,0-0.1,0.2-0.2,0.2c-0.2,0-0.3-0.2-0.2-0.3C38.3,3.9,38.4,3.5,38.8,3.3z
			"/>
		<path class="st1" d="M36.1,6.5c0-0.3,0.2-0.6,0.4-0.8C36.5,6.1,36.4,6.3,36.1,6.5L36.1,6.5z"/>
		<path class="st1" d="M36.1,6.5c0,0.3-0.1,0.5-0.3,0.8C35.8,7,35.9,6.8,36.1,6.5C36.1,6.5,36.1,6.5,36.1,6.5z"/>
		<path class="st1" d="M40.4,4.4C40.5,4.1,40.6,4,41,3.9C40.8,4.2,40.7,4.3,40.4,4.4z"/>
		<path class="st1" d="M35.8,7.5c0,0.3-0.1,0.4-0.3,0.6C35.5,7.8,35.6,7.6,35.8,7.5z"/>
		<path class="st1" d="M39.8,5C39.8,5,39.7,5.1,39.8,5c-0.1,0-0.1,0-0.1,0C39.7,5,39.7,5,39.8,5C39.8,5,39.8,5,39.8,5z"/>
		<path class="st1" d="M38.7,8.5c0-0.1,0-0.2,0.1-0.2C38.8,8.3,38.8,8.4,38.7,8.5z"/>
		<path class="st1" d="M39.1,4.2C39,4.2,39,4.2,39.1,4.2C39,4.2,39,4.2,39.1,4.2C39,4.2,39.1,4.2,39.1,4.2z"/>
		<polygon class="st1" points="40.1,4.6 40.1,4.6 40.1,4.6 		"/>
		<polygon class="st1" points="39.9,4.8 39.9,4.8 39.9,4.8 		"/>
		<path class="st1" d="M33.7,12.4c0,0,0.1-0.1,0.1-0.1C33.9,12.4,33.8,12.4,33.7,12.4z"/>
		<polygon class="st1" points="39.5,5.2 39.5,5.3 39.4,5.3 		"/>
		<path class="st1" d="M41.4,9.2c0.7-0.6,1.4-1.1,2-1.7c0.1-0.1,0.2-0.2,0.3-0.1c0.1,0.1,0,0.2,0,0.3c-0.1,0.1-0.2,0.3-0.3,0.4
			c-0.6,0.6-1.2,1.1-1.9,1.5c0,0,0,0-0.1-0.1c0.1-0.1,0.2-0.2,0.3-0.4C41.7,9.2,41.5,9.2,41.4,9.2C41.4,9.3,41.4,9.2,41.4,9.2z"/>
		<path class="st1" d="M41,10c-0.2,0.5-0.8,0.5-1.2,0.7c0.3-0.6,0.8-0.9,1.3-1.3c0,0,0,0,0,0c0,0.1-0.1,0.2-0.1,0.3l0,0
			c-0.1,0-0.2,0.1-0.2,0.2C40.8,9.9,40.9,9.9,41,10C41,9.9,41,9.9,41,10z"/>
		<path class="st1" d="M40.5,8.8C41,8,41.9,7.7,42.7,7.3C42,7.8,41.3,8.3,40.5,8.8C40.5,8.8,40.5,8.8,40.5,8.8z"/>
		<path class="st1" d="M41.6,9.6C41.5,9.9,41.2,9.9,41,10c0,0,0,0-0.1-0.1c0-0.1,0-0.1,0-0.2c0,0,0,0,0,0
			C41.2,9.8,41.3,9.6,41.6,9.6C41.5,9.6,41.6,9.6,41.6,9.6z"/>
		<path class="st1" d="M41.1,9.4c0.1-0.1,0.2-0.1,0.3-0.1c0,0,0,0,0,0C41.4,9.4,41.2,9.4,41.1,9.4L41.1,9.4z"/>
		<path class="st1" d="M28.2,9.1c-0.2-0.2-0.5-0.3-0.8-0.6C27.9,8.5,28.1,8.7,28.2,9.1C28.2,9,28.2,9,28.2,9.1z"/>
		<path class="st1" d="M28.2,9.6c-0.3,0.1-0.5,0.1-0.7-0.1C27.8,9.5,28,9.4,28.2,9.6z"/>
		<path class="st1" d="M27.1,8c0.1,0,0.2,0.1,0.2,0.2c0,0,0,0.1-0.1,0.1C27.1,8.2,27.1,8.1,27.1,8C27.1,8,27.1,8,27.1,8z"/>
		<path class="st1" d="M25.1,9.3c0,0.1,0.1,0.1,0.1,0.1c0,0,0,0.1,0,0.1c0,0-0.1-0.1-0.1-0.1C25.1,9.4,25.1,9.4,25.1,9.3z"/>
		<path class="st1" d="M26,9.9c-0.1,0-0.2,0-0.3,0C25.8,9.8,25.9,9.8,26,9.9L26,9.9z"/>
		<path class="st1" d="M26,9.9c0.1,0,0.3,0,0.3,0.1l0,0C26.2,10,26,10.1,26,9.9C26,9.9,26,9.9,26,9.9z"/>
		<path class="st1" d="M27.2,9.2c0,0,0.1,0,0.1,0.1c0,0,0,0.1,0,0.1C27.3,9.3,27.2,9.3,27.2,9.2L27.2,9.2z"/>
		<path class="st1" d="M26.3,10c0,0,0.1,0.1,0.1,0.1c0,0,0,0,0,0C26.4,10.1,26.3,10.1,26.3,10C26.3,10,26.3,10,26.3,10z"/>
		<path class="st1" d="M27.2,9.3c0,0-0.1-0.1-0.1-0.1l0,0C27.1,9.2,27.2,9.2,27.2,9.3C27.2,9.2,27.2,9.3,27.2,9.3z"/>
		<path class="st1" d="M27.1,9.2C27,9.1,27,9.1,27,9l0,0C27,9,27.1,9.1,27.1,9.2C27.1,9.1,27.1,9.2,27.1,9.2z"/>
		<path class="st1" d="M27,9C27,9,26.9,9,27,9C26.9,9,27,9,27,9C27,9,27,9,27,9z"/>
		<path class="st1" d="M37.8,1.1c0,0.1-0.1,0.3-0.2,0.5c-0.4,0.5-0.8,1-1.1,1.5c-0.1,0.1-0.1,0.3-0.2,0.2c-0.1-0.1-0.2-0.2-0.2-0.4
			c0.5-0.7,0.8-1.6,1.5-2.1c0.1-0.1,0.1-0.1,0.2-0.1C37.9,0.8,37.8,0.9,37.8,1.1z"/>
		<path class="st1" d="M21.6,8.1c0,0,0.1,0.1,0.1,0.1C21.5,8.3,21.6,8.2,21.6,8.1C21.6,8.1,21.6,8.1,21.6,8.1z"/>
		<path class="st1" d="M33.1,14.3c0.1,0.1,0.2,0.1,0.2,0.2c0,0-0.1,0-0.1,0C33,14.6,33.1,14.4,33.1,14.3
			C33.1,14.3,33.1,14.3,33.1,14.3z"/>
		<path class="st1" d="M22.6,11c0.2,0,0.4,0,0.6-0.1C23,11,22.8,11.4,22.6,11C22.6,10.9,22.6,11,22.6,11z"/>
		<path class="st1" d="M22.5,11.4c-0.2,0.2-0.3,0.3-0.6,0.1c0,0,0,0,0,0C22.1,11.5,22.3,11.4,22.5,11.4L22.5,11.4z"/>
		<path class="st1" d="M22.4,11.4C22.5,11.4,22.5,11.4,22.4,11.4C22.5,11.4,22.5,11.4,22.4,11.4C22.5,11.4,22.4,11.4,22.4,11.4z"/>
		<path class="st1" d="M21.1,11.4c0-0.1,0-0.1,0.1-0.1C21.2,11.3,21.1,11.4,21.1,11.4z"/>
		<path class="st2" d="M26.9,15c0,0.1,0.1,0.3-0.1,0.2c-0.4-0.1-0.7-0.1-1.1-0.4C26.1,14.7,26.5,15.1,26.9,15
			C26.9,15,26.9,15,26.9,15z"/>
		<path class="st2" d="M41.1,9.4c0.1,0,0.3,0,0.3-0.1c0.1,0,0.2-0.1,0.4-0.1c-0.1,0.2-0.2,0.3-0.3,0.4c-0.2,0-0.3,0.2-0.5,0.1
			C41,9.6,41.1,9.5,41.1,9.4z"/>
		<path class="st2" d="M41,9.7c0,0.1,0,0.1,0,0.2c0,0-0.1,0-0.1,0C40.8,9.8,40.9,9.7,41,9.7z"/>
	</g>
</g>
<g>
	<path d="M4,8.7c0,0,0.1-0.1,0.2-0.1s0.2,0,0.3,0c0.1,0,0.2,0,0.3,0.1C4.9,8.8,5,8.8,4.9,8.9c-0.1,0.5-0.1,1-0.1,1.5
		c0,0.6,0,1.1,0,1.6s0,1.1,0.1,1.6c0,0.6,0.1,1.1,0.1,1.5c0,0.4,0,0.7,0,1.1c0,0.3-0.1,0.7-0.2,1c0.2,0.1,0.5,0.2,0.7,0.2
		c0.2,0.1,0.6,0.1,0.9,0c0.4,0,0.7-0.2,1.1-0.2c0.3-0.2,0.7-0.3,0.9-0.7C8.6,16.3,8.9,16,9,15.7c0.2-0.3,0.3-0.7,0.5-1.1
		c0.2-0.3,0.2-0.7,0.2-1.1c0-0.2,0-0.6,0-0.9c0-0.6-0.2-1.1-0.4-1.7c-0.2-0.6-0.6-1-1-1.4s-0.9-0.7-1.5-1C6.3,8.3,5.8,8.1,5.1,8.1
		c-0.3,0-0.7,0-1.1,0.1C3.7,8.3,3.3,8.3,3,8.5C2.6,8.7,2.3,8.8,2,9C1.6,9.2,1.3,9.4,1.1,9.6C0.9,9.8,0.7,10,0.6,10.4
		c-0.2,0.2-0.3,0.6-0.3,0.8c0,0.2,0,0.5,0,0.7c0.1,0.2,0.2,0.3,0.2,0.5c0.2,0.1,0.3,0.2,0.5,0.2c0.2,0.1,0.3,0.1,0.6,0.1h0.1v0.1
		v0.1H1.5c-0.3,0-0.5,0-0.7-0.1c-0.2-0.1-0.3-0.2-0.5-0.3c-0.1-0.1-0.2-0.2-0.2-0.5C0,11.8,0,11.5,0,11.2s0.2-0.7,0.3-0.9
		s0.4-0.6,0.6-0.7C1,9.5,1.1,9.4,1.1,9.3c0.1-0.1,0.2-0.2,0.3-0.2C1.6,9,1.7,8.9,1.8,8.8S2,8.7,2.1,8.7c0.5-0.2,1-0.5,1.5-0.6
		s1.1-0.2,1.5-0.2c0.7,0,1.2,0.2,1.8,0.4s1.1,0.6,1.5,1c0.5,0.4,0.8,0.9,1.1,1.5c0.2,0.6,0.4,1.2,0.4,1.9c0,0.4,0,0.8-0.1,1.2
		c-0.1,0.4-0.2,0.8-0.3,1.1c-0.2,0.4-0.3,0.7-0.5,1.1c-0.2,0.3-0.5,0.6-0.7,0.8c-0.2,0.2-0.6,0.5-0.9,0.6c-0.3,0.2-0.7,0.2-1.1,0.2
		c-0.2,0-0.6,0-0.8-0.1s-0.6-0.1-0.8-0.2c-0.2,0.4-0.4,0.7-0.7,0.9c-0.3,0.4-0.7,0.5-1.3,0.6c-0.2,0-0.5,0-0.7-0.1
		c-0.2-0.1-0.3-0.2-0.4-0.4c-0.1-0.2-0.2-0.3-0.2-0.5s0-0.3,0.1-0.5c0.1-0.2,0.2-0.3,0.3-0.4s0.4-0.2,0.7-0.2c0.2,0,0.5,0,0.7,0.1
		s0.5,0.2,0.7,0.2c0-0.3,0.1-0.7,0-0.9c0-0.3,0-0.6,0-0.8c0-0.5,0-1.1-0.1-1.6c0-0.6-0.1-1.1-0.1-1.7s0-1.1,0-1.7
		C3.8,9.8,3.9,9.2,4,8.7z M2.6,18.6c0.2,0,0.3-0.1,0.5-0.2c0.2-0.1,0.2-0.2,0.3-0.2c0.1-0.1,0.2-0.2,0.2-0.4
		c0.1-0.2,0.1-0.3,0.2-0.5c-0.2-0.1-0.5-0.2-0.7-0.2C2.8,17,2.7,17,2.5,17c-0.3,0-0.5,0.2-0.7,0.3s-0.2,0.3-0.2,0.5
		c0,0.2,0.1,0.4,0.2,0.5C2,18.6,2.3,18.6,2.6,18.6z"/>
	<path d="M13.1,13.3c-0.1,0.3-0.2,0.6-0.5,0.7c-0.2,0.2-0.5,0.3-0.8,0.4c0,0.2,0,0.2,0.1,0.4c0,0.1,0.1,0.2,0.1,0.2
		c0.1,0.3,0.2,0.6,0.4,0.7c0.2,0.1,0.3,0.2,0.5,0.2c0.2,0,0.3-0.1,0.5-0.2c0.2-0.1,0.3-0.2,0.5-0.4c0.2-0.2,0.3-0.3,0.4-0.6
		c0.2-0.2,0.2-0.4,0.2-0.6c0.1-0.2,0.2-0.5,0.2-0.7c0.1-0.2,0.1-0.5,0.2-0.8c0-0.1,0.1-0.1,0.2-0.1s0.1,0.1,0.1,0.1
		c-0.1,0.3-0.1,0.6-0.2,0.8c-0.1,0.2-0.1,0.5-0.2,0.7c-0.1,0.2-0.2,0.4-0.3,0.7c-0.2,0.2-0.2,0.4-0.4,0.6c-0.2,0.2-0.3,0.3-0.6,0.5
		c-0.2,0.2-0.4,0.2-0.7,0.2c-0.1,0-0.2,0-0.4,0c-0.2,0-0.3-0.1-0.4-0.1c-0.2-0.1-0.3-0.2-0.4-0.3c-0.2-0.2-0.2-0.3-0.4-0.6
		c-0.1-0.2-0.2-0.4-0.2-0.6c0-0.2-0.1-0.4-0.1-0.7c0-0.2,0-0.5,0.1-0.7c0-0.2,0.1-0.4,0.1-0.7c0-0.1,0.1-0.2,0.1-0.2
		c0.1-0.1,0.1-0.2,0.2-0.3c0.1-0.1,0.2-0.2,0.2-0.2c0.1-0.1,0.2-0.1,0.2-0.2c0.2-0.1,0.4-0.1,0.6-0.1c0.2,0,0.2,0.1,0.4,0.2
		c0.1,0.2,0.2,0.3,0.2,0.4c0.1,0.1,0.1,0.2,0.2,0.3C13.2,12.8,13.2,13.1,13.1,13.3z M12.1,12.2c-0.1,0.1-0.2,0.2-0.2,0.3
		c-0.1,0.2-0.1,0.3-0.2,0.5c0,0.2,0,0.4,0,0.6s0,0.4,0,0.7c0.2-0.1,0.2-0.1,0.3-0.2c0.2,0,0.3-0.1,0.4-0.2s0.2-0.2,0.2-0.2
		c0.1-0.1,0.2-0.2,0.2-0.4c0-0.1,0.1-0.2,0.1-0.3c0-0.1,0-0.2,0-0.3c0-0.1-0.1-0.2-0.1-0.2c-0.2,0-0.2-0.1-0.2-0.1s-0.2-0.1-0.2-0.1
		C12.3,12.1,12.2,12.2,12.1,12.2z"/>
	<path d="M18.1,8.7c-0.1,0.3-0.2,0.6-0.4,0.9s-0.4,0.7-0.6,0.9c-0.2,0.2-0.5,0.6-0.7,0.8c-0.2,0.2-0.6,0.5-0.8,0.7
		c-0.1,0.3-0.2,0.7-0.2,1s0,0.7,0,0.9c0,0.3,0.1,0.6,0.1,0.8c0.1,0.2,0.1,0.5,0.2,0.7c0.1,0.2,0.2,0.4,0.3,0.4
		c0.2,0,0.2-0.1,0.4-0.2c0.2-0.2,0.2-0.3,0.4-0.6c0.2-0.2,0.2-0.5,0.3-0.7c0.1-0.2,0.2-0.5,0.2-0.7c0.1-0.2,0.2-0.4,0.2-0.5
		s0-0.1,0.1-0.1h0.1c0,0,0.1,0,0.1,0.1v0.1c-0.1,0.3-0.2,0.7-0.3,1.1c-0.2,0.3-0.2,0.7-0.4,1c-0.2,0.3-0.3,0.6-0.5,0.8
		s-0.3,0.4-0.5,0.4c-0.2,0.1-0.3,0.1-0.6-0.1c-0.2-0.2-0.4-0.4-0.6-0.8c-0.1-0.2-0.2-0.6-0.2-0.9c-0.1-0.3-0.1-0.7-0.2-1.1
		c0-0.4,0-0.7,0-1.1s0.1-0.8,0.2-1.1c0.1-0.2,0.2-0.6,0.2-0.8c0.1-0.3,0.2-0.7,0.3-1c0.1-0.3,0.2-0.7,0.4-1c0.2-0.3,0.2-0.6,0.4-0.8
		c0.2-0.2,0.3-0.5,0.5-0.7c0.2-0.2,0.4-0.2,0.6-0.3c0.2,0,0.3,0,0.5,0c0.1,0.1,0.2,0.2,0.3,0.2c0.1,0.1,0.1,0.2,0.2,0.4
		c0,0.2,0,0.3,0,0.5c0,0.2,0,0.3-0.1,0.5C18.2,8.4,18.2,8.6,18.1,8.7z M15.7,11.4c0,0.1,0,0.1,0,0.2c0,0.1,0,0.1,0,0.2
		c0.2-0.2,0.5-0.4,0.7-0.7c0.2-0.2,0.5-0.5,0.7-0.7c0.2-0.2,0.4-0.6,0.6-0.8c0.2-0.3,0.2-0.6,0.4-0.8c0.1-0.2,0.1-0.5,0.2-0.7
		c0-0.2,0-0.5-0.1-0.7c-0.2-0.2-0.2-0.3-0.3-0.3c-0.1-0.1-0.2-0.1-0.2,0c-0.1,0-0.2,0.1-0.2,0.2c-0.1,0.1-0.2,0.1-0.2,0.2
		c-0.2,0.2-0.2,0.4-0.4,0.7s-0.2,0.6-0.3,1c-0.1,0.3-0.2,0.7-0.3,1.1S15.8,10.9,15.7,11.4z"/>
	<path d="M17.2,12.7C17.1,12.7,17.1,12.7,17.2,12.7c-0.1-0.2,0-0.2,0-0.2c0.1,0,0.2,0,0.2,0c0.1,0,0.2,0,0.2,0.1
		c0.2,0.1,0.4,0.2,0.5,0.2c0.1,0.1,0.2,0.2,0.2,0.2c0,0.1,0,0.2,0,0.3c0,0.1-0.1,0.2-0.1,0.3c-0.1,0.2-0.1,0.2-0.1,0.4
		c0,0.2-0.1,0.2-0.1,0.4c0,0.2,0.1,0.2,0.1,0.3c0.1,0.1,0.2,0.2,0.2,0.2c0.1,0,0.2,0.1,0.2,0.1s0.2,0,0.2,0c0.2,0,0.4-0.2,0.5-0.3
		c0.1-0.2,0.2-0.4,0.3-0.6c0.1-0.2,0.2-0.5,0.2-0.7c0.1-0.2,0.1-0.5,0.2-0.7c0,0,0-0.1,0.1-0.1h0.1c0,0,0.1,0,0.1,0.1V13
		c0,0.2-0.1,0.5-0.2,0.7c-0.1,0.2-0.2,0.6-0.2,0.8c-0.1,0.2-0.2,0.5-0.5,0.7c-0.2,0.2-0.4,0.2-0.7,0.2c-0.2,0-0.2,0-0.4,0
		s-0.3-0.1-0.4-0.2s-0.2-0.2-0.3-0.2s-0.2-0.2-0.2-0.5c0-0.2-0.1-0.2,0-0.4c0-0.2,0-0.2,0.1-0.4c0-0.2,0.1-0.2,0.1-0.3
		c0-0.1,0.1-0.2,0.1-0.2c0-0.2-0.1-0.2-0.1-0.2C17.3,12.8,17.2,12.7,17.2,12.7z M17.8,11c0-0.1,0-0.2,0-0.2c0-0.1,0.1-0.1,0.1-0.1
		c0.1,0,0.1,0,0.2,0c0.1,0,0.1,0,0.2,0.1c0,0,0,0.1,0.1,0.1c0,0.1,0,0.1,0,0.2c0,0.1,0,0.1,0,0.2c0,0.1,0,0.2,0,0.2
		c0,0.1,0,0.1-0.1,0.1c0,0-0.1,0-0.2,0c-0.1,0-0.1-0.1-0.2-0.2C17.8,11.3,17.8,11.1,17.8,11z"/>
	<path d="M21.4,12.7C21.4,12.7,21.4,12.7,21.4,12.7L21.4,12.7l-0.2,0.1v-0.1c0-0.1,0-0.2-0.1-0.2s-0.1-0.1-0.2-0.1s-0.1,0-0.2,0.1
		s-0.1,0.1-0.1,0.2c0,0.2-0.1,0.2-0.1,0.4c0,0.2,0,0.3,0,0.5c0,0.1,0,0.2,0,0.4c0,0.2,0,0.3,0.1,0.4c0.1,0.2,0.1,0.2,0.2,0.3
		c0.1,0.1,0.2,0.1,0.4,0.1c0.3,0,0.7-0.2,0.8-0.5c0.2-0.2,0.3-0.7,0.5-1.4c0-0.1,0.1-0.1,0.1-0.1c0.1,0,0.1,0.1,0.1,0.2
		c-0.1,0.3-0.1,0.6-0.2,0.8c-0.1,0.2-0.2,0.5-0.3,0.7c-0.2,0.2-0.3,0.3-0.6,0.5c-0.2,0.1-0.5,0.2-0.8,0.2c-0.2,0-0.3-0.1-0.5-0.2
		s-0.2-0.2-0.3-0.3c-0.2-0.2-0.2-0.4-0.2-0.6c0-0.2,0-0.5,0-0.7c0-0.2,0.1-0.4,0.2-0.7c0.1-0.2,0.2-0.4,0.5-0.6
		c0.1,0,0.2-0.1,0.2-0.1c0.1,0,0.2,0,0.3,0s0.2,0.1,0.2,0.2C21.3,12.4,21.4,12.5,21.4,12.7z"/>
	<path d="M24.2,12.3L24.2,12.3C24.2,12.4,24.2,12.4,24.2,12.3L24.2,12.3c0.1-0.1,0.2-0.1,0.2-0.1s0.2,0,0.2,0c0.1,0,0.2,0.1,0.2,0.1
		c0.1,0,0.1,0.1,0.1,0.1c0.1,0,0.1,0.1,0.1,0.2c0,0.1,0,0.2,0,0.3c0,0.1,0,0.2,0,0.3s0,0.2,0,0.2c0,0.4,0,0.8-0.1,1.3
		c0,0.4,0,0.8,0.1,1.3c0,0.3,0.1,0.5,0.2,0.6c0.1,0.1,0.2,0,0.4-0.2c0.1-0.1,0.2-0.2,0.3-0.4c0.1-0.2,0.2-0.4,0.3-0.6
		c0.1-0.2,0.2-0.5,0.3-0.7c0.1-0.2,0.2-0.5,0.2-0.7s0.2-0.4,0.2-0.7C27,13.3,27,13.1,27,13c0,0,0-0.1,0.1-0.1c0.1,0,0.1,0,0.1,0h0.1
		V13c0,0.2-0.1,0.6-0.2,1c-0.2,0.4-0.2,0.7-0.4,1.1c-0.2,0.3-0.3,0.7-0.5,1.1c-0.2,0.3-0.4,0.6-0.6,0.8C25.5,17,25.4,17,25.2,17
		c-0.2,0-0.2,0-0.4-0.1c-0.2,0-0.2-0.1-0.3-0.2s-0.2-0.2-0.2-0.2c-0.1-0.2-0.1-0.4-0.1-0.6c0-0.2,0-0.4,0-0.6c0-0.2,0-0.4,0-0.6
		c0-0.2,0-0.4,0-0.7c0-0.2,0-0.2,0-0.3c0-0.1,0-0.1,0-0.2c0,0,0,0-0.1,0.1c0,0.1-0.1,0.1-0.1,0.2c-0.1,0.2-0.2,0.5-0.3,0.8
		s-0.2,0.6-0.4,0.9c0,0.1-0.1,0.1-0.2,0.2c-0.1,0.1-0.2,0.1-0.2,0.2c-0.1,0-0.2,0.1-0.2,0.1c-0.1,0-0.2,0-0.2-0.1
		c-0.2-0.1-0.2-0.2-0.3-0.3c-0.1-0.2-0.1-0.3-0.2-0.5c0-0.2,0-0.3,0-0.5s0.1-0.3,0.1-0.5c0.1-0.2,0.2-0.6,0.2-0.8
		c0.1-0.3,0.2-0.6,0.4-0.8c0.2-0.2,0.4-0.3,0.7-0.4C23.5,12,23.8,12.1,24.2,12.3z M22.7,15.7c0.1,0,0.1,0,0.2-0.1s0.2-0.2,0.2-0.3
		c0.1-0.2,0.2-0.3,0.2-0.6c0.1-0.2,0.2-0.4,0.2-0.7c0.1-0.2,0.2-0.4,0.2-0.7c0.1-0.2,0.2-0.4,0.2-0.6c0-0.2,0-0.2,0-0.3
		c0-0.1-0.1-0.1-0.2-0.2s-0.2,0-0.2,0c-0.1,0-0.2,0.1-0.2,0.2c-0.1,0.1-0.2,0.2-0.2,0.4c-0.1,0.2-0.2,0.3-0.2,0.5
		c-0.1,0.2-0.1,0.3-0.2,0.5c0,0.2,0,0.4-0.1,0.5c0,0.1,0,0.2-0.1,0.3c0,0.2,0,0.2-0.1,0.4c0,0.2,0,0.2,0,0.3
		C22.5,15.5,22.7,15.6,22.7,15.7z"/>
	<path d="M26.3,11.4c-0.1,0-0.1,0-0.2,0c-0.1,0,0-0.1,0-0.2c0.2-0.1,0.3-0.2,0.5-0.2c0.2-0.1,0.3-0.2,0.5-0.2
		c0.1-0.3,0.1-0.7,0.2-0.9c0-0.2,0.1-0.5,0.2-0.7c0,0,0.1-0.1,0.2,0c0.1,0,0.2,0.1,0.2,0.1c0.1,0.1,0.2,0.1,0.2,0.2s0.1,0.1,0.1,0.2
		c0,0.2,0,0.3-0.1,0.5c0,0.2-0.1,0.3-0.1,0.5c0.2-0.1,0.4-0.1,0.7-0.2c0.2,0,0.4-0.1,0.7-0.1c0.1,0,0.1,0.1,0.1,0.1
		c0,0.1,0,0.1-0.1,0.1c-0.2,0-0.5,0-0.7,0.1c-0.2,0.1-0.4,0.1-0.6,0.2c-0.1,0.5-0.2,1-0.2,1.5c-0.1,0.6-0.2,1.1-0.2,1.6
		c-0.1,0.6-0.1,1.1-0.2,1.5c-0.1,0.5,0,0.9,0.1,1.2c0.1,0.2,0.2,0.4,0.2,0.5c0.1,0.1,0.2,0.2,0.2,0.2s0.2,0,0.2-0.1
		c0.1-0.1,0.2-0.1,0.3-0.2c0.2-0.2,0.5-0.5,0.7-0.8c0.2-0.3,0.3-0.7,0.4-1.1c0.1-0.4,0.2-0.7,0.2-1.1s0.2-0.7,0.2-1.1
		c0-0.1,0.1-0.1,0.1-0.1C30,12.9,30,13,30,13c-0.1,0.3-0.2,0.7-0.2,1.1c-0.1,0.4-0.2,0.8-0.2,1.2c-0.1,0.4-0.2,0.7-0.4,1.1
		c-0.2,0.3-0.4,0.7-0.7,0.9c-0.2,0.2-0.3,0.2-0.5,0.3c-0.2,0.1-0.3,0.2-0.5,0.2c-0.2,0-0.3,0-0.5-0.2c-0.2-0.1-0.3-0.3-0.5-0.7
		c-0.2-0.3-0.2-0.7-0.2-1.4c0-0.7,0.1-1.4,0.2-2.2c0.1-0.4,0.2-0.7,0.2-1.1s0.1-0.7,0.2-1.1c-0.2,0.1-0.2,0.1-0.4,0.2
		C26.4,11.4,26.4,11.4,26.3,11.4z"/>
	<path d="M31.8,13.3c-0.1,0.3-0.2,0.6-0.5,0.7c-0.2,0.2-0.5,0.3-0.8,0.4c0,0.2,0,0.2,0.1,0.4c0,0.1,0.1,0.2,0.1,0.2
		c0.1,0.3,0.2,0.6,0.4,0.7s0.3,0.2,0.5,0.2c0.2,0,0.3-0.1,0.5-0.2c0.2-0.1,0.3-0.2,0.5-0.4c0.2-0.2,0.3-0.3,0.4-0.6
		c0.2-0.2,0.2-0.4,0.2-0.6c0.1-0.2,0.2-0.5,0.2-0.7c0.1-0.2,0.1-0.5,0.2-0.8c0-0.1,0.1-0.1,0.2-0.1c0.1,0,0.1,0.1,0.1,0.1
		c-0.1,0.3-0.1,0.6-0.2,0.8c-0.1,0.2-0.1,0.5-0.2,0.7c-0.1,0.2-0.2,0.4-0.3,0.7c-0.2,0.2-0.2,0.4-0.4,0.6c-0.2,0.2-0.3,0.3-0.6,0.5
		c-0.2,0.2-0.4,0.2-0.7,0.2c-0.1,0-0.2,0-0.4,0s-0.3-0.1-0.4-0.1c-0.2-0.1-0.3-0.2-0.4-0.3c-0.2-0.2-0.2-0.3-0.4-0.6
		c-0.1-0.2-0.2-0.4-0.2-0.6c0-0.2-0.1-0.4-0.1-0.7c0-0.2,0-0.5,0.1-0.7c0-0.2,0.1-0.4,0.1-0.7c0-0.1,0.1-0.2,0.1-0.2
		c0.1-0.1,0.1-0.2,0.2-0.3c0.1-0.1,0.2-0.2,0.2-0.2s0.2-0.1,0.2-0.2c0.2-0.1,0.4-0.1,0.6-0.1s0.2,0.1,0.4,0.2
		c0.1,0.2,0.2,0.3,0.2,0.4c0.1,0.1,0.1,0.2,0.2,0.3C31.9,12.8,31.9,13.1,31.8,13.3z M30.8,12.2c-0.1,0.1-0.2,0.2-0.2,0.3
		c-0.1,0.2-0.1,0.3-0.2,0.5c0,0.2,0,0.4,0,0.6s0,0.4,0,0.7c0.2-0.1,0.2-0.1,0.3-0.2c0.2,0,0.3-0.1,0.4-0.2s0.2-0.2,0.2-0.2
		c0.1-0.1,0.2-0.2,0.2-0.4c0-0.1,0.1-0.2,0.1-0.3c0-0.1,0-0.2,0-0.3c0-0.1-0.1-0.2-0.1-0.2c-0.2,0-0.2-0.1-0.2-0.1s-0.2-0.1-0.2-0.1
		C31,12.1,30.9,12.2,30.8,12.2z"/>
	<path d="M41.2,8.7c0,0,0.1-0.1,0.2-0.1s0.2,0,0.3,0c0.1,0,0.2,0,0.3,0.1c0.1,0,0.2,0.1,0.1,0.1c-0.1,0.5-0.2,1.1-0.2,1.5
		c0,0.6,0,1.1,0,1.6s0,1.1,0.1,1.6c0,0.6,0.1,1.1,0.1,1.5c0,0.4,0,0.7,0,1.1c0,0.3-0.1,0.7-0.2,1c0.2,0.1,0.5,0.2,0.7,0.2
		c0.2,0.1,0.6,0.1,0.9,0c0.4,0,0.7-0.2,1.1-0.2c0.3-0.2,0.7-0.3,0.9-0.7c0.2-0.2,0.5-0.6,0.7-0.9c0.2-0.3,0.3-0.7,0.5-1.1
		c0.2-0.3,0.2-0.7,0.2-1.1c0.1-0.4,0.1-0.7,0.1-1.1c0-0.6-0.2-1.1-0.4-1.7s-0.6-1-1-1.4s-0.9-0.7-1.5-1c-0.6-0.2-1.1-0.4-1.8-0.4
		c-0.3,0-0.7,0-1.1,0.1c-0.3,0.1-0.7,0.2-1.1,0.3c-0.3,0.2-0.7,0.3-1,0.5c-0.3,0.2-0.7,0.4-0.9,0.7C38.2,9.5,38,9.7,37.8,10
		c-0.2,0.7-0.4,1-0.4,1.2c0,0.2,0,0.5,0,0.7c0.1,0.2,0.2,0.3,0.2,0.5c0.2,0.1,0.2,0.2,0.4,0.2c0.2,0.1,0.3,0.1,0.6,0.1h0.1v0.1v0.1
		h-0.1c-0.2,0-0.5-0.1-0.7-0.2c-0.2-0.1-0.3-0.2-0.5-0.3c-0.2-0.2-0.2-0.3-0.3-0.5c-0.1-0.2-0.1-0.4,0-0.7c0-0.3,0.2-0.7,0.3-0.9
		s0.4-0.6,0.6-0.7c0.1-0.1,0.2-0.2,0.2-0.2c0.1-0.1,0.2-0.2,0.3-0.2c0.1-0.1,0.2-0.2,0.3-0.2s0.2-0.2,0.3-0.2c0.5-0.2,1-0.5,1.5-0.6
		c0.5-0.1,1.1-0.2,1.5-0.2c0.7,0,1.2,0.2,1.8,0.4c0.6,0.2,1.1,0.6,1.5,1s0.8,0.9,1.1,1.5c0.2,0.6,0.4,1.2,0.4,1.9
		c0,0.4,0,0.8-0.1,1.2s-0.2,0.8-0.3,1.1c-0.2,0.4-0.3,0.7-0.5,1.1c-0.2,0.3-0.5,0.6-0.7,0.8c-0.2,0.2-0.6,0.5-0.9,0.6
		c-0.3,0.2-0.7,0.2-1.1,0.2c-0.2,0-0.6,0-0.8-0.1c-0.2-0.1-0.6-0.1-0.8-0.2c-0.2,0.4-0.4,0.7-0.7,0.9c-0.3,0.2-0.7,0.3-1.3,0.4
		c-0.2,0-0.5,0-0.7-0.1c-0.2-0.1-0.3-0.2-0.4-0.4c-0.1-0.2-0.2-0.3-0.2-0.5c0-0.2,0-0.3,0.1-0.5c0.1-0.2,0.2-0.3,0.3-0.4
		s0.4-0.2,0.7-0.2c0.2,0,0.5,0,0.7,0.1s0.5,0.2,0.7,0.2c0-0.3,0.1-0.7,0-0.9c0-0.3,0-0.6,0-0.8c0-0.5,0-1.1-0.1-1.6
		c0-0.6-0.1-1.1-0.1-1.7c0-0.6,0-1.1,0-1.7C41,9.8,41.1,9.2,41.2,8.7z M39.9,18.6c0.2,0,0.3-0.1,0.5-0.2c0.2-0.1,0.2-0.2,0.3-0.2
		s0.2-0.2,0.2-0.4c0.1-0.2,0.1-0.3,0.2-0.5c-0.2-0.1-0.5-0.2-0.7-0.2C40.1,17,39.9,17,39.8,17c-0.3,0-0.5,0.2-0.7,0.3
		c-0.2,0.2-0.2,0.4-0.2,0.6s0.1,0.4,0.2,0.5C39.2,18.6,39.5,18.6,39.9,18.6z"/>
	<path d="M50.3,13.3c-0.1,0.3-0.2,0.6-0.5,0.7c-0.2,0.2-0.5,0.3-0.8,0.4c0,0.2,0,0.2,0.1,0.4c0,0.1,0.1,0.2,0.1,0.2
		c0.1,0.3,0.2,0.6,0.4,0.7S49.9,16,50,16c0.2,0,0.3-0.1,0.5-0.2c0.2-0.1,0.3-0.2,0.5-0.4c0.2-0.2,0.3-0.3,0.4-0.6
		c0.2-0.2,0.2-0.4,0.2-0.6c0.1-0.2,0.2-0.5,0.2-0.7c0.1-0.2,0.1-0.5,0.2-0.8c0-0.1,0.1-0.1,0.2-0.1s0.1,0.1,0.1,0.1
		c-0.1,0.3-0.1,0.6-0.2,0.8c-0.1,0.3-0.2,0.6-0.2,0.9c-0.1,0.2-0.2,0.4-0.3,0.7c-0.2,0.2-0.2,0.4-0.4,0.6c-0.2,0.2-0.3,0.3-0.6,0.5
		c-0.2,0.2-0.4,0.2-0.7,0.2c-0.1,0-0.2,0-0.4,0s-0.3-0.1-0.4-0.1c-0.2-0.1-0.3-0.2-0.4-0.3c-0.2-0.2-0.2-0.3-0.4-0.6
		c-0.1-0.2-0.2-0.4-0.2-0.6c0-0.2-0.1-0.4-0.1-0.7c0-0.2,0-0.5,0.1-0.7c0-0.2,0.1-0.4,0.1-0.7c0-0.1,0.1-0.2,0.1-0.2
		c0.1-0.1,0.1-0.2,0.2-0.3c0.1-0.1,0.2-0.2,0.2-0.2s0.2-0.1,0.2-0.2c0.2-0.1,0.4-0.1,0.6-0.1s0.2,0.1,0.4,0.2
		c0.1,0.1,0.2,0.2,0.2,0.2c0.1,0.1,0.1,0.2,0.2,0.3C50.4,12.8,50.4,13.1,50.3,13.3z M49.3,12.2c-0.1,0.1-0.2,0.2-0.2,0.3
		C49,12.7,49,12.8,48.9,13c0,0.2,0,0.4,0,0.6s0,0.4,0,0.7c0.2-0.1,0.2-0.1,0.3-0.2c0.2,0,0.3-0.1,0.4-0.2s0.2-0.2,0.2-0.2
		c0.1-0.1,0.2-0.2,0.2-0.4c0-0.1,0.1-0.2,0.1-0.3c0-0.1,0-0.2,0-0.3c0-0.1-0.1-0.2-0.1-0.2c-0.1,0-0.2-0.1-0.2-0.1s-0.2-0.1-0.2-0.1
		C49.5,12.1,49.4,12.2,49.3,12.2z"/>
	<path d="M55.3,8.7c-0.1,0.3-0.2,0.7-0.4,0.9c-0.2,0.3-0.4,0.7-0.6,0.9c-0.2,0.2-0.5,0.6-0.7,0.8c-0.2,0.2-0.6,0.5-0.8,0.7
		c-0.1,0.3-0.1,0.7-0.1,1s0,0.7,0,0.9c0,0.3,0.1,0.6,0.1,0.8c0.1,0.2,0.1,0.5,0.2,0.7c0.1,0.2,0.2,0.4,0.3,0.4
		c0.2,0,0.2-0.1,0.4-0.2c0.2-0.2,0.2-0.3,0.4-0.6c0.2-0.2,0.2-0.5,0.3-0.7c0.1-0.2,0.2-0.5,0.2-0.7c0.1-0.2,0.2-0.4,0.2-0.5
		s0-0.1,0.1-0.1h0.1c0,0,0.1,0,0.1,0.1v0.1c-0.1,0.3-0.2,0.7-0.3,1.1c-0.2,0.3-0.2,0.7-0.4,1c-0.2,0.3-0.3,0.6-0.5,0.8
		s-0.3,0.4-0.5,0.4c-0.2,0.1-0.3,0.1-0.6-0.1c-0.2-0.2-0.4-0.4-0.6-0.8c-0.1-0.2-0.2-0.6-0.2-0.9c-0.1-0.3-0.1-0.7-0.2-1.1
		c0-0.4,0-0.7,0-1.1s0.1-0.8,0.2-1.1c0.1-0.2,0.2-0.6,0.2-0.8c0.1-0.3,0.2-0.7,0.3-1c0-0.4,0.2-0.7,0.3-1.1s0.2-0.6,0.4-0.8
		c0.2-0.2,0.3-0.5,0.5-0.7c0.2-0.2,0.4-0.2,0.6-0.3c0.2,0,0.3,0,0.5,0c0.1,0.1,0.2,0.2,0.3,0.2c0.1,0.1,0.1,0.2,0.2,0.4
		c0,0.2,0,0.3,0,0.5s0,0.3-0.1,0.5C55.4,8.4,55.4,8.6,55.3,8.7z M52.9,11.4c0,0.1,0,0.1,0,0.2c0,0.1,0,0.1,0,0.2
		c0.2-0.2,0.5-0.4,0.7-0.7c0.2-0.2,0.5-0.5,0.7-0.7c0.2-0.2,0.4-0.6,0.6-0.8c0.2-0.3,0.2-0.6,0.4-0.8c0.1-0.2,0.1-0.5,0.2-0.7
		c0-0.2,0-0.5-0.1-0.7C55.2,7,55.2,7,55.2,7c-0.1-0.1-0.2-0.1-0.2,0c-0.1,0-0.2,0.1-0.2,0.2c-0.1,0.1-0.2,0.2-0.2,0.3
		c-0.2,0.2-0.2,0.4-0.4,0.7c-0.2,0.3-0.3,0.4-0.5,0.8c-0.1,0.3-0.2,0.7-0.3,1.1S53,10.9,52.9,11.4z"/>
	<path d="M54.3,12.7c-0.1,0-0.1-0.1-0.1-0.2c0-0.1,0.1-0.1,0.1-0.1c0.1,0,0.2,0,0.2,0c0.1,0,0.2,0,0.2,0.1c0.2,0.1,0.4,0.2,0.5,0.2
		c0.1,0.1,0.2,0.2,0.2,0.2c0,0.1,0,0.2,0,0.3c0,0.1-0.1,0.2-0.1,0.3c-0.1,0.2-0.1,0.2-0.1,0.4c-0.1,0.2-0.1,0.3-0.1,0.5
		c0,0.2,0.1,0.2,0.1,0.3c0.1,0.1,0.2,0.2,0.2,0.2s0.2,0.1,0.2,0.1c0.1,0,0.2,0,0.2,0c0.2,0,0.4-0.2,0.5-0.3s0.2-0.4,0.3-0.6
		c0.1-0.2,0.2-0.5,0.2-0.7c0.1-0.2,0.1-0.5,0.2-0.7c0,0,0-0.1,0.1-0.1h0.1c0,0,0.1,0,0.1,0.1V13c0,0.2-0.1,0.5-0.2,0.7
		c-0.1,0.2-0.2,0.6-0.2,0.8c-0.1,0.2-0.2,0.5-0.5,0.7c-0.2,0.2-0.4,0.2-0.7,0.2c-0.2,0-0.2,0-0.4,0s-0.3-0.1-0.4-0.2
		s-0.2-0.2-0.3-0.2s-0.2-0.2-0.2-0.5c0-0.2-0.1-0.2,0-0.4c0-0.2,0-0.2,0.1-0.4c0-0.2,0.1-0.2,0.1-0.3c0-0.1,0.1-0.2,0.1-0.2
		c0-0.2-0.1-0.2-0.1-0.2C54.5,12.8,54.4,12.7,54.3,12.7z M55,11c0-0.1,0-0.2,0-0.2c0-0.1,0.1-0.1,0.1-0.1c0.1,0,0.1,0,0.2,0
		s0.1,0,0.2,0.1c0,0,0,0.1,0.1,0.1c0,0.1,0,0.1,0,0.2c0,0.1,0,0.1,0,0.2c0,0.1,0,0.2,0,0.2c0,0.1,0,0.1-0.1,0.1c0,0-0.1,0-0.2,0
		c-0.1,0-0.1-0.1-0.2-0.2C55,11.3,55,11.1,55,11z"/>
	<path d="M60.7,8.7c-0.2,0.3-0.3,0.6-0.5,0.9c-0.2,0.3-0.4,0.7-0.6,0.9c-0.2,0.2-0.5,0.6-0.7,0.8c-0.2,0.2-0.6,0.5-0.8,0.7
		c-0.1,0.3-0.1,0.7-0.1,1s0,0.7,0,0.9c0,0.3,0.1,0.6,0.1,0.8c0.1,0.2,0.1,0.5,0.2,0.7c0.1,0.2,0.2,0.4,0.3,0.4
		c0.2,0,0.2-0.1,0.4-0.2c0.2-0.2,0.2-0.3,0.4-0.6c0.2-0.2,0.2-0.5,0.3-0.7c0.1-0.2,0.2-0.5,0.2-0.7c0.1-0.2,0.2-0.4,0.2-0.5
		s0-0.1,0.1-0.1h0.1c0,0,0.1,0,0.1,0.1v0.1c-0.1,0.3-0.2,0.7-0.3,1.1c-0.2,0.3-0.2,0.7-0.4,1c-0.2,0.3-0.3,0.6-0.5,0.8
		s-0.3,0.4-0.5,0.4c-0.2,0.1-0.3,0.1-0.6-0.1c-0.2-0.2-0.4-0.4-0.6-0.8c-0.1-0.2-0.2-0.6-0.2-0.9c-0.1-0.3-0.1-0.7-0.2-1.1
		c0-0.4,0-0.7,0-1.1s0.1-0.8,0.2-1.1c0.1-0.2,0.2-0.6,0.2-0.8c0.1-0.3,0.2-0.7,0.3-1c0.1-0.3,0.2-0.7,0.4-1c0.2-0.3,0.2-0.6,0.4-0.8
		C59,7.4,59.1,7.1,59.3,7c0.2-0.2,0.4-0.2,0.6-0.3c0.2,0,0.3,0,0.5,0c0.1,0.1,0.2,0.2,0.3,0.2c0.1,0.1,0.1,0.2,0.2,0.4
		c0,0.2,0,0.3,0,0.5c0,0.2,0,0.3-0.1,0.5C60.7,8.4,60.7,8.6,60.7,8.7z M58.2,11.4c0,0.1,0,0.1,0,0.2c0,0.1,0,0.1,0,0.2
		c0.2-0.2,0.4-0.4,0.7-0.7c0.2-0.2,0.5-0.5,0.7-0.7c0.2-0.2,0.4-0.6,0.6-0.8c0.2-0.3,0.2-0.6,0.4-0.8c0.1-0.2,0.1-0.5,0.2-0.7
		c0-0.2,0-0.5-0.1-0.7C60.5,7,60.4,7,60.4,7c-0.1-0.1-0.2-0.1-0.2,0C60.1,7,60,7,60,7.1c-0.1,0.1-0.2,0.2-0.2,0.3
		c-0.2,0.2-0.2,0.4-0.4,0.7C59.1,8.5,59,8.6,58.8,9c-0.1,0.3-0.2,0.7-0.3,1.1C58.4,10.5,58.2,10.9,58.2,11.4z"/>
	<path d="M61.8,12.3L61.8,12.3C61.9,12.4,61.9,12.4,61.8,12.3L61.8,12.3c0.2-0.1,0.2-0.1,0.2-0.1c0.1,0,0.2,0,0.2,0s0.2,0.1,0.2,0.1
		c0.1,0,0.1,0.1,0.1,0.1c0.1,0,0.1,0.1,0.1,0.2c0,0.1,0,0.2,0,0.3c0,0.1,0,0.2,0,0.3s0,0.2,0,0.2c0,0.4,0,0.8-0.1,1.3
		c0,0.4,0,0.8,0.1,1.3c0,0.3,0.1,0.5,0.2,0.6c0.1,0.1,0.2,0,0.4-0.2c0.1-0.1,0.2-0.2,0.3-0.4c0.1-0.2,0.2-0.4,0.3-0.6
		c0.1-0.2,0.2-0.5,0.3-0.7c0.1-0.2,0.2-0.5,0.2-0.7c0.1-0.2,0.2-0.4,0.2-0.7c0.1-0.2,0.1-0.3,0.1-0.5c0,0,0-0.1,0.1-0.1s0.1,0,0.1,0
		h0.1V13c0,0.2-0.1,0.6-0.2,1s-0.2,0.7-0.4,1.1c-0.2,0.3-0.3,0.7-0.5,1.1c-0.2,0.3-0.4,0.6-0.6,0.8C63.1,17,63,17,62.9,17
		c-0.2,0-0.2,0-0.4-0.1c-0.2,0-0.2-0.1-0.3-0.2s-0.2-0.2-0.2-0.2c-0.1-0.2-0.1-0.4-0.1-0.6c0-0.2,0-0.4,0-0.6c0-0.2,0-0.4,0-0.6
		c0-0.2,0-0.4,0-0.7c0-0.2,0-0.2,0-0.3c0-0.1,0-0.1,0-0.2c0,0,0,0-0.1,0.1c0,0.1-0.1,0.1-0.1,0.2c-0.1,0.2-0.2,0.5-0.3,0.8
		c-0.1,0.3-0.2,0.6-0.4,0.9c0,0.1-0.1,0.1-0.2,0.2c-0.1,0.1-0.2,0.1-0.2,0.2c-0.1,0-0.2,0.1-0.2,0.1c-0.1,0-0.2,0-0.2-0.1
		c-0.2-0.1-0.2-0.2-0.3-0.3s-0.2-0.3-0.2-0.5c0-0.2,0-0.3,0-0.5c0-0.2,0.1-0.3,0.1-0.5c0.1-0.2,0.2-0.6,0.2-0.8
		c0.1-0.3,0.2-0.6,0.4-0.8c0.2-0.2,0.4-0.3,0.7-0.4C61.2,12,61.5,12.1,61.8,12.3z M60.4,15.7c0.1,0,0.1,0,0.2-0.1s0.2-0.2,0.2-0.3
		c0.1-0.2,0.2-0.3,0.2-0.6c0.1-0.2,0.2-0.4,0.2-0.7c0.1-0.2,0.2-0.4,0.2-0.7c0.1-0.2,0.2-0.4,0.2-0.6c0-0.2,0-0.2,0-0.3
		c0-0.1-0.1-0.1-0.2-0.2s-0.2,0-0.2,0c-0.1,0-0.2,0.1-0.2,0.2c-0.1,0.1-0.2,0.2-0.2,0.4c-0.1,0.2-0.2,0.3-0.2,0.5s-0.1,0.3-0.2,0.5
		c-0.1,0.2-0.1,0.3-0.1,0.4s0,0.2-0.1,0.3c0,0.2,0,0.2-0.1,0.4c0,0.2,0,0.2,0,0.3C60.3,15.4,60.4,15.6,60.4,15.7z"/>
	<path d="M65.2,14L65.2,14c-0.1,0.4-0.2,0.8-0.2,1.1c-0.1,0.3-0.1,0.7-0.2,1c-0.1,0.3-0.1,0.5-0.1,0.7s0,0.2,0,0.2
		c0.1,0,0.1,0,0.2-0.1s0.1-0.2,0.2-0.2c0.2-0.2,0.2-0.6,0.4-0.8c0.2-0.2,0.3-0.6,0.5-0.8c0.1-0.2,0.2-0.2,0.4-0.3
		c0.2-0.1,0.3-0.2,0.5-0.1c0.1,0,0.2,0,0.3,0.1c0.1,0.1,0.2,0.1,0.3,0.2c0.1,0.1,0.2,0.2,0.2,0.3c0.1,0.2,0.1,0.2,0,0.4
		c0,0.1-0.1,0.2-0.1,0.4c-0.1,0.2-0.2,0.4-0.2,0.7c-0.1,0.2-0.2,0.6-0.2,0.8C67,17.9,67,18.1,67,18.3c0,0.2,0,0.4,0.1,0.5
		s0.2,0.2,0.3,0.1c0.2-0.2,0.5-0.3,0.7-0.6s0.4-0.6,0.6-0.9s0.3-0.7,0.4-1.1c0.2-0.4,0.2-0.8,0.3-1.2c0.1-0.4,0.2-0.8,0.2-1.1
		c0.1-0.4,0.2-0.7,0.2-1c0,0,0-0.1,0.1-0.1h0.1c0,0,0.1,0,0.1,0.1v0.1C70.1,13.3,70,13.6,70,14c-0.1,0.4-0.2,0.7-0.2,1.2
		c-0.1,0.5-0.2,0.8-0.4,1.3c-0.2,0.5-0.3,0.8-0.5,1.2c-0.2,0.4-0.4,0.7-0.6,1c-0.2,0.3-0.5,0.5-0.7,0.7c-0.2,0.2-0.5,0.2-0.7,0.1
		c-0.2-0.1-0.4-0.2-0.5-0.4s-0.1-0.3-0.1-0.6c0-0.2,0.1-0.5,0.1-0.8c0.1-0.2,0.2-0.6,0.2-0.9c0.1-0.3,0.2-0.6,0.2-0.8
		c0.1-0.2,0.1-0.5,0.1-0.7c0-0.2,0-0.3-0.1-0.4c-0.1-0.2-0.1-0.2-0.2-0.2s-0.2,0.1-0.2,0.1s-0.1,0.1-0.2,0.2
		c-0.1,0.1-0.1,0.1-0.2,0.2c-0.1,0.2-0.2,0.3-0.3,0.5c-0.1,0.2-0.2,0.3-0.2,0.5c-0.1,0.2-0.2,0.3-0.2,0.5c-0.1,0.2-0.2,0.4-0.2,0.6
		c0,0,0,0.1-0.1,0.2c0,0.1-0.1,0.2-0.1,0.2s-0.1,0.2-0.1,0.2c-0.1,0.1-0.1,0.1-0.2,0.1c-0.2,0-0.3-0.1-0.4-0.3
		c-0.1-0.2-0.2-0.7-0.2-1.1c0-0.5,0-1,0.1-1.5s0.2-1.2,0.2-1.9c0.1-0.7,0.2-1.2,0.4-1.9s0.3-1.2,0.6-1.7c0.2-0.5,0.5-1,0.7-1.3
		s0.6-0.6,0.8-0.7c0.2-0.1,0.5-0.1,0.7-0.1c0.2,0,0.4,0.1,0.7,0.2c0.2,0.1,0.3,0.2,0.5,0.4C68.9,8.2,69,8.4,69,8.7
		c0.1,0.4,0.1,0.8,0,1.1s-0.2,0.7-0.3,1.1c-0.2,0.3-0.4,0.7-0.7,1c-0.2,0.3-0.5,0.6-0.8,0.8c-0.3,0.2-0.7,0.5-1,0.7
		C65.9,13.6,65.5,13.8,65.2,14z M66.1,9.5c0,0.1-0.1,0.2-0.1,0.5c-0.1,0.2-0.2,0.6-0.2,1c-0.1,0.4-0.2,0.8-0.2,1.3
		c-0.1,0.5-0.2,1-0.2,1.5c0.5-0.2,1-0.5,1.5-0.8c0.5-0.3,0.9-0.7,1.2-1.2c0.3-0.5,0.7-0.9,0.8-1.5C69,9.7,69.1,9.2,69,8.7
		c0-0.2-0.1-0.4-0.2-0.6c-0.1-0.2-0.2-0.3-0.4-0.4S68,7.5,67.8,7.5c-0.2,0-0.4,0-0.6,0.1C67,7.7,67,7.8,66.8,7.9
		c-0.1,0.2-0.2,0.3-0.2,0.5c-0.1,0.2-0.2,0.3-0.2,0.6C66.4,9.2,66.1,9.3,66.1,9.5z"/>
</g>
</svg>
